<?xml version="1.0" standalone="no"?>
<!DOCTYPE svg PUBLIC "-//W3C//DTD SVG 1.1//EN" "http://www.w3.org/Graphics/SVG/1.1/DTD/svg11.dtd" >
<svg xmlns="http://www.w3.org/2000/svg">
<defs>
  <font id="ux-ykt-icon" horiz-adv-x="1024">
    <font-face font-family="ux-ykt-icon"
      units-per-em="1024" ascent="1024"
      descent="0" />
    <missing-glyph horiz-adv-x="0" />
    <glyph glyph-name="0"
      unicode="&#xEA01;"
      horiz-adv-x="590.7692307692308" d="M578.6584615384616 292.6276923076922C578.6584615384616 117.5630769230769 450.4615384615385 11.4215384615384 294.6953846153847 11.4215384615384S12.1107692307693 117.5630769230769 12.1107692307693 292.6276923076922V728.2215384615384C12.1107692307693 903.2861538461538 138.9292307692308 1009.4276923076922 294.6953846153847 1009.4276923076922C450.4615384615385 1009.4276923076922 578.6584615384616 903.2861538461538 578.6584615384616 728.2215384615384V292.6276923076922zM438.0553846153847 296.763076923077V724.0861538461538C438.0553846153847 819.2 384.2953846153847 883.9876923076922 294.6953846153847 883.9876923076922C205.0953846153846 883.9876923076922 152.7138461538462 819.1999999999999 152.7138461538462 724.0861538461538V296.763076923077C152.7138461538462 201.6492307692307 205.0953846153846 136.8615384615384 294.6953846153847 136.8615384615384S438.0553846153847 201.6492307692307 438.0553846153847 296.763076923077z" />
    <glyph glyph-name="1"
      unicode="&#xEA02;"
      horiz-adv-x="368.64" d="M357.0688 0V1020.7232H210.8416L11.5712 848.6912V686.6944000000001L210.8416 861.5936V0z" />
    <glyph glyph-name="2"
      unicode="&#xEA03;"
      horiz-adv-x="602.3529411764706" d="M592.1129411764706 0V127.8996078431372H184.5207843137255L497.9450980392157 511.598431372549C559.7866666666666 587.4949019607843 592.1129411764706 639.4980392156863 592.1129411764706 728.0439215686274C592.1129411764706 900.9192156862744 474.0517647058824 1009.1419607843138 302.5819607843137 1009.1419607843138C132.5176470588236 1009.1419607843138 11.6454901960784 896.7027450980393 11.6454901960784 726.638431372549H155.0054901960784C155.0054901960784 839.0776470588235 226.6854901960785 881.2423529411765 302.5819607843137 881.2423529411765C395.3443137254902 881.2423529411765 448.7529411764706 819.4007843137255 448.7529411764706 729.4494117647059C448.7529411764706 678.8517647058823 433.2925490196079 642.3090196078432 395.3443137254902 595.927843137255L10.24 127.8996078431372V0H592.1129411764706z" />
    <glyph glyph-name="3"
      unicode="&#xEA04;"
      horiz-adv-x="630.1538461538462" d="M615.5815384615386 295.3846153846154C615.5815384615386 416.6892307692308 561.8215384615385 489.7476923076922 477.7353846153846 526.9661538461537C553.5507692307693 564.1846153846153 600.4184615384617 631.7292307692308 600.4184615384617 736.4923076923076C600.4184615384617 899.1507692307692 481.8707692307693 1010.8061538461538 315.0769230769231 1010.8061538461538C157.9323076923077 1010.8061538461538 35.2492307692308 910.1784615384616 26.9784615384615 743.3846153846154H167.5815384615384C174.4738461538461 830.2276923076923 229.6123076923077 883.9876923076923 315.0769230769231 883.9876923076923C395.0276923076923 883.9876923076923 459.8153846153845 831.6061538461538 459.8153846153845 732.3569230769231C459.8153846153845 642.756923076923 412.9476923076923 583.4830769230769 310.9415384615384 583.4830769230769H287.5076923076923V460.8H310.9415384615384C421.2184615384615 460.8 474.9784615384615 398.7692307692307 474.9784615384615 299.52C474.9784615384615 196.1353846153846 406.0553846153846 136.8615384615384 315.0769230769231 136.8615384615384C233.7476923076924 136.8615384615384 160.6892307692308 180.9723076923077 155.1753846153847 285.7353846153847H14.5723076923077C20.0861538461538 94.1292307692307 157.9323076923077 10.043076923077 315.0769230769231 10.043076923077C479.1138461538462 10.043076923077 615.5815384615386 106.5353846153846 615.5815384615386 295.3846153846155z" />
    <glyph glyph-name="4"
      unicode="&#xEA05;"
      horiz-adv-x="675.84" d="M669.7984 153.3952000000001V289.5872000000001H560.8448V527.5648000000001H418.9184V289.5872000000001H165.1712L523.5712 1020.7232H365.8752L6.0416 289.5872000000001V153.3952000000001H418.9184V0H560.8448V153.3952000000001z" />
    <glyph glyph-name="5"
      unicode="&#xEA06;"
      horiz-adv-x="602.3529411764706" d="M593.518431372549 354.5850980392156C593.518431372549 448.7529411764706 582.2745098039217 545.7317647058823 506.3780392156863 621.6282352941175C465.6188235294118 662.3874509803921 405.1827450980393 686.2807843137255 326.4752941176471 686.2807843137255C253.3898039215687 686.2807843137255 194.3592156862746 663.7929411764705 160.6274509803922 628.6556862745097V892.8878431372549H571.0305882352942V1020.7874509803922H31.3223529411765V474.0517647058823H162.0329411764706C177.4933333333334 523.2439215686275 222.4690196078432 564.003137254902 303.9874509803922 564.003137254902C419.2376470588236 564.003137254902 450.1584313725491 474.0517647058823 450.1584313725491 354.5850980392156C450.1584313725491 287.121568627451 444.5364705882353 221.0635294117647 402.3717647058824 178.8988235294118C377.0729411764706 153.6 340.5301960784314 139.5450980392157 298.3654901960785 139.5450980392157C208.4141176470589 139.5450980392157 163.4384313725491 190.1427450980392 152.1945098039217 278.6886274509804H8.8345098039216C14.4564705882353 207.0086274509803 31.3223529411765 140.9505882352941 84.7309803921569 87.5419607843137C128.3011764705883 43.9717647058823 202.7921568627452 10.24 298.3654901960785 10.24C395.3443137254902 10.24 464.2133333333334 43.9717647058823 509.1890196078431 88.9474509803922C582.2745098039215 162.0329411764706 593.518431372549 247.767843137255 593.518431372549 354.5850980392156z" />
    <glyph glyph-name="6"
      unicode="&#xEA07;"
      horiz-adv-x="602.3529411764706" d="M597.0321568627451 319.8494117647059C597.0321568627451 135.7301960784314 474.7545098039215 14.8580392156863 301.8792156862745 14.8580392156863S5.3207843137255 128.7027450980392 5.3207843137255 314.2274509803922C5.3207843137255 395.7458823529412 36.241568627451 473.0478431372549 79.8117647058823 560.1882352941177L307.5011764705883 1024H460.6996078431372L245.6596078431373 593.92C272.3639215686275 605.1639215686274 303.2847058823529 609.3803921568626 334.2054901960785 609.3803921568626C478.9709803921569 609.3803921568626 597.0321568627451 495.5356862745098 597.0321568627451 319.8494117647059zM453.6721568627451 317.038431372549C453.6721568627451 415.4227450980392 396.0470588235294 489.913725490196 300.4737254901961 489.913725490196C210.5223529411765 489.913725490196 148.6807843137255 425.2611764705883 148.6807843137255 317.038431372549C148.6807843137255 210.2211764705883 210.5223529411765 142.7576470588235 300.4737254901961 142.7576470588235C390.4250980392157 142.7576470588235 453.6721568627451 210.2211764705883 453.6721568627451 317.038431372549z" />
    <glyph glyph-name="7"
      unicode="&#xEA08;"
      horiz-adv-x="634.88" d="M621.3632 890.2656V1020.7232H13.5168V729.7023999999999H154.0096V890.2656H465.1008L122.4704 0H280.1664z" />
    <glyph glyph-name="8"
      unicode="&#xEA09;"
      horiz-adv-x="630.1538461538462" d="M617.6492307692308 296.763076923077C617.6492307692308 118.9415384615384 482.56 11.4215384615384 314.3876923076923 11.4215384615384S12.5046153846154 118.9415384615384 12.5046153846154 296.763076923077C12.5046153846154 413.9323076923077 78.6707692307692 485.6123076923077 147.5938461538461 526.9661538461537C84.1846153846154 565.5630769230769 29.0461538461538 634.4861538461538 29.0461538461538 737.8707692307692C29.0461538461538 901.9076923076922 154.4861538461539 1009.4276923076922 314.3876923076923 1009.4276923076922C474.2892307692308 1009.4276923076922 601.1076923076923 901.9076923076922 601.1076923076923 737.8707692307692C601.1076923076923 634.4861538461538 545.9692307692308 565.5630769230769 482.56 526.9661538461537C551.483076923077 485.6123076923076 617.6492307692308 413.9323076923077 617.6492307692308 296.763076923077zM460.5046153846154 733.7353846153846C460.5046153846154 819.2 399.8523076923077 883.9876923076923 314.3876923076923 883.9876923076923S169.6492307692308 819.2 169.6492307692308 733.7353846153846C169.6492307692308 646.8923076923077 228.9230769230769 584.8615384615384 314.3876923076923 584.8615384615384S460.5046153846154 646.8923076923077 460.5046153846154 733.7353846153846zM475.6676923076923 299.52C475.6676923076923 390.4984615384615 405.3661538461538 463.556923076923 314.3876923076923 463.556923076923C223.4092307692308 463.556923076923 153.1076923076923 390.4984615384615 153.1076923076923 299.52S223.4092307692308 136.8615384615384 314.3876923076923 136.8615384615384C405.3661538461538 136.8615384615384 475.6676923076923 208.5415384615385 475.6676923076923 299.52z" />
    <glyph glyph-name="9"
      unicode="&#xEA0A;"
      horiz-adv-x="622.4313725490196" d="M607.0713725490195 709.7725490196078C607.0713725490195 628.2541176470588 576.1505882352941 550.9521568627451 532.5803921568627 463.8117647058824L304.8909803921569 0H151.6925490196079L366.7325490196079 430.0800000000001C340.0282352941177 418.8360784313726 307.7019607843138 414.6196078431373 276.7811764705883 414.6196078431373C132.0156862745098 414.6196078431373 15.36 528.4643137254902 15.36 704.1505882352942C15.36 888.2698039215686 137.6376470588236 1009.1419607843138 310.5129411764706 1009.1419607843138S607.0713725490195 895.2972549019607 607.0713725490195 709.7725490196078zM463.7113725490196 706.961568627451C463.7113725490196 813.7788235294117 400.4643137254903 881.2423529411765 310.5129411764706 881.2423529411765S158.7200000000001 813.7788235294117 158.7200000000001 706.961568627451C158.7200000000001 608.5772549019607 214.9396078431374 534.086274509804 310.5129411764706 534.086274509804C400.4643137254903 534.086274509804 463.7113725490196 598.7388235294118 463.7113725490196 706.961568627451z" />
    <glyph glyph-name="QQ-"
      unicode="&#xEA0B;"
      horiz-adv-x="1024" d="M717.7142857142857 539.4285714285714C717.7142857142857 541.257142857143 718.6285714285714 544.9142857142858 718.6285714285714 547.6571428571428C718.6285714285714 562.2857142857143 714.9714285714284 576.9142857142858 706.7428571428571 589.7142857142858V592.4571428571428C706.7428571428571 599.7714285714285 704.9142857142856 606.1714285714286 702.1714285714285 612.5714285714287C696.6857142857143 719.5428571428572 628.1142857142858 804.5714285714286 516.5714285714286 804.5714285714286S335.5428571428572 719.5428571428572 330.9714285714286 613.4857142857143C328.2285714285715 607.0857142857143 326.4000000000001 600.6857142857143 326.4000000000001 593.3714285714286V590.6285714285715C318.1714285714286 577.8285714285714 314.5142857142858 563.2 314.5142857142858 548.5714285714287V539.4285714285714C298.057142857143 533.0285714285715 274.2857142857144 502.8571428571429 256.9142857142858 461.7142857142858C234.9714285714286 408.6857142857143 231.3142857142858 359.3142857142857 248.6857142857144 350.1714285714286C260.5714285714286 343.7714285714286 279.7714285714286 358.4000000000001 298.057142857143 384.9142857142857C304.457142857143 355.6571428571429 322.7428571428573 329.1428571428572 347.4285714285715 308.1142857142857C320.9142857142858 298.0571428571428 303.5428571428572 282.5142857142858 303.5428571428572 264.2285714285714C303.5428571428572 234.9714285714286 350.1714285714287 210.2857142857142 406.857142857143 210.2857142857142C458.9714285714287 210.2857142857142 501.0285714285715 229.4857142857142 509.257142857143 255.9999999999999H521.1428571428571C529.3714285714285 230.4 572.3428571428572 210.2857142857142 623.5428571428571 210.2857142857142C681.1428571428571 210.2857142857142 726.8571428571428 234.0571428571427 726.8571428571428 264.2285714285714C726.8571428571428 281.6 709.4857142857142 298.0571428571428 682.9714285714285 308.1142857142857C707.6571428571428 330.0571428571428 725.9428571428572 355.6571428571429 732.3428571428572 384.9142857142857C750.6285714285715 358.4 768.9142857142857 343.7714285714286 781.7142857142858 350.1714285714286C800.0000000000001 359.3142857142857 796.3428571428572 409.6 773.4857142857143 461.7142857142858C758.8571428571429 502.8571428571429 735.0857142857143 533.0285714285715 717.7142857142858 539.4285714285714zM512 1024C229.4857142857143 1024 0 794.5142857142857 0 512S229.4857142857143 0 512 0S1024 229.4857142857143 1024 512S794.5142857142857 1024 512 1024zM512 27.4285714285714C245.0285714285714 27.4285714285714 27.4285714285714 245.0285714285715 27.4285714285714 512S245.0285714285714 996.5714285714286 512 996.5714285714286S996.5714285714286 778.9714285714285 996.5714285714286 512S778.9714285714285 27.4285714285714 512 27.4285714285714z" />
    <glyph glyph-name="account-fill"
      unicode="&#xEA0C;"
      horiz-adv-x="975.2380952380952" d="M648.4358095238094 534.9668571428572C722.6758095238094 583.3386666666667 771.4133333333333 664.1371428571429 771.4133333333333 755.8095238095239C771.4133333333333 903.8994285714286 644.3398095238095 1024 487.5946666666667 1024C330.8251428571429 1024 203.7760000000001 903.8994285714286 203.7760000000001 755.8095238095239C203.7760000000001 664.1371428571429 252.5379047619048 583.3386666666668 326.7291428571429 534.9668571428572C136.5577142857143 469.2358095238095 0 290.7672380952381 0 80.3596190476191C0 36.1813333333334 36.5714285714286 0 81.2860952380952 0H893.952C938.6666666666666 0 975.2380952380952 36.1813333333334 975.2380952380952 80.3596190476191C975.2380952380952 290.7672380952382 838.607238095238 469.2358095238095 648.4358095238094 534.9668571428572" />
    <glyph glyph-name="account"
      unicode="&#xEA0D;"
      horiz-adv-x="977.4545454545455" d="M773.2363636363636 477.1607272727273A24.901818181818182 24.901818181818182 0 0 1 738.8858181818183 472.925090909091A23.412363636363633 23.412363636363633 0 0 1 743.3076363636364 439.4589090909092C846.1963636363638 362.0305454545455 905.1927272727274 245.1316363636364 905.1927272727274 118.6210909090909C905.1927272727274 92.4160000000001 883.2465454545456 70.9585454545454 856.1803636363637 70.9585454545454H121.2741818181818C94.3243636363636 70.9585454545454 72.2618181818182 92.4159999999999 72.2618181818182 118.6210909090909C72.2618181818182 245.1316363636364 131.3047272727273 362.0538181818182 234.24 439.5054545454546C244.9687272727273 447.5578181818182 246.9469090909091 462.5454545454545 238.6618181818182 472.925090909091A24.855272727272723 24.855272727272723 0 0 1 204.3112727272727 477.2072727272728C89.2741818181818 390.6792727272727 23.2727272727273 260.0029090909091 23.2727272727273 118.6210909090909C23.2727272727273 66.0945454545455 67.2581818181818 23.2727272727273 121.2509090909091 23.2727272727273H856.2036363636364C910.2894545454546 23.2727272727273 954.1818181818182 66.0945454545455 954.1818181818182 118.6210909090909C954.1818181818182 260.0029090909092 888.2734545454546 390.6792727272727 773.2363636363636 477.1607272727273M494.3825454545454 953.0414545454546C622.7549090909091 953.0414545454546 727.1098181818181 848.64 727.1098181818181 720.2676363636364C727.1098181818181 592.0116363636364 622.7549090909091 487.5403636363636 494.3825454545454 487.5403636363636C366.08 487.5403636363636 261.6552727272727 592.0116363636364 261.6552727272727 720.2676363636363C261.6552727272727 848.64 366.08 953.0414545454544 494.3825454545454 953.0414545454544M772.5381818181819 721.4079999999999C772.5381818181819 875.4734545454545 647.3309090909091 1000.7272727272727 493.2654545454546 1000.7272727272727C339.293090909091 1000.7272727272727 213.9927272727273 875.4501818181818 213.9927272727273 721.4079999999999C213.9927272727273 567.4589090909091 339.293090909091 442.1352727272727 493.2654545454546 442.1352727272727C647.3309090909091 442.1352727272727 772.5381818181819 567.458909090909 772.5381818181819 721.4079999999999z" />
    <glyph glyph-name="address"
      unicode="&#xEA0E;"
      horiz-adv-x="830.2702702702703" d="M708.4972972972973 899.4594594594595C631.0054054054054 979.718918918919 525.8378378378379 1024 415.1351351351351 1024S199.2648648648648 979.718918918919 121.7729729729729 899.4594594594595C-41.5135135135136 733.4054054054054 -41.5135135135136 467.7189189189188 121.7729729729729 298.8972972972973L415.1351351351351 0L708.4972972972973 298.8972972972973C871.7837837837839 467.7189189189188 871.7837837837839 733.4054054054054 708.4972972972973 899.4594594594595zM664.2162162162163 343.1783783783783L415.1351351351351 88.5621621621622L166.054054054054 343.1783783783784C27.6756756756756 484.3243243243243 27.6756756756756 708.4972972972973 166.054054054054 852.4108108108107C232.4756756756757 918.8324324324324 321.0378378378378 957.5783783783784 415.1351351351351 957.5783783783784C509.2324324324323 957.5783783783784 597.7945945945946 918.8324324324324 664.2162162162163 852.4108108108107C802.5945945945946 708.4972972972973 802.5945945945946 484.3243243243243 664.2162162162163 343.1783783783784zM415.1351351351351 774.918918918919C334.8756756756756 774.918918918919 268.454054054054 719.5675675675675 251.8486486486486 642.0756756756757C235.2432432432432 564.5837837837837 279.5243243243243 487.0918918918919 351.481081081081 456.6486486486486C423.4378378378378 426.2054054054054 509.2324324324323 451.1135135135135 553.5135135135135 517.5351351351351C597.7945945945946 583.9567567567567 589.4918918918919 672.5189189189189 531.372972972973 727.8702702702702C500.9297297297297 758.3135135135135 459.4162162162162 774.918918918919 415.1351351351351 774.918918918919zM453.881081081081 514.7675675675675C409.5999999999999 495.3945945945947 357.0162162162162 512 329.3405405405405 553.5135135135135S307.1999999999999 647.6108108108108 343.1783783783783 683.5891891891891C362.5513513513513 702.962162162162 390.2270270270269 714.0324324324324 417.9027027027026 714.0324324324324C467.7189189189189 714.0324324324324 509.2324324324323 678.054054054054 520.3027027027026 631.0054054054053S500.9297297297296 534.1405405405404 453.881081081081 514.7675675675675z" />
    <glyph glyph-name="book"
      unicode="&#xEA0F;"
      horiz-adv-x="1024" d="M110.9333333333334 806.4000000000001V213.3333333333334A17.066666666666666 17.066666666666666 0 0 1 128.0000000000001 196.2666666666668H292.6933333333334A388.26666666666665 388.26666666666665 0 0 0 434.176 169.5786666666668L486.4 149.1413333333335V704A102.4 102.4 0 0 1 384 806.4000000000001H110.9333333333334zM384.0000000000001 857.6A153.6 153.6 0 0 0 537.5999999999999 704V114.7520000000002A27.733333333333334 27.733333333333334 0 0 0 509.8666666666667 87.0186666666668C504.704 87.3386666666669 504.704 87.3386666666669 499.7546666666667 88.9386666666669L415.5306666666667 121.898666666667A337.06666666666666 337.06666666666666 0 0 1 292.6933333333334 145.0666666666666H128.0000000000001A68.26666666666667 68.26666666666667 0 0 0 59.7333333333334 213.3333333333334V857.6H384.0000000000001zM913.0666666666666 806.4000000000001V213.3333333333334A17.066666666666666 17.066666666666666 0 0 0 896 196.2666666666668H731.3066666666666A388.26666666666665 388.26666666666665 0 0 1 589.8240000000001 169.5786666666668L537.6 149.1413333333335V704A102.4 102.4 0 0 0 640 806.4000000000001H913.0666666666668zM640 857.6A153.6 153.6 0 0 1 486.4 704V114.7520000000002A27.733333333333334 27.733333333333334 0 0 1 514.1333333333333 87.0186666666668C519.296 87.3386666666669 519.296 87.3386666666669 524.2453333333333 88.9386666666669L608.4693333333333 121.898666666667A337.06666666666666 337.06666666666666 0 0 0 731.3066666666666 145.0666666666666H896A68.26666666666667 68.26666666666667 0 0 1 964.2666666666667 213.3333333333334V857.6H640z" />
    <glyph glyph-name="card"
      unicode="&#xEA10;"
      horiz-adv-x="1098.9268292682927" d="M624.390243902439 1024H249.7560975609756A74.92682926829269 74.92682926829269 0 0 1 174.829268292683 949.0731707317073V74.9268292682926A74.92682926829269 74.92682926829269 0 0 1 249.7560975609756 0H1024A74.92682926829269 74.92682926829269 0 0 1 1098.9268292682927 74.9268292682926V949.0731707317073A74.92682926829269 74.92682926829269 0 0 1 1024 1024H924.0975609756098V689.3767804878048C924.0975609756098 686.8292682926829 923.8977560975608 684.3816585365854 923.4981463414634 681.9340487804877C918.6528780487804 652.6126829268293 882.4881951219512 640.5744390243902 858.5615609756097 658.1073170731706L793.1504390243903 705.9855609756098A33.91687804878049 33.91687804878049 0 0 1 752.5650731707317 705.6359024390244L688.6025365853658 657.4829268292683C662.253268292683 637.6772682926829 624.6649756097561 656.3340487804878 624.390243902439 689.3767804878048V1024zM49.9512195121951 999.0243902439024A49.951219512195124 49.951219512195124 0 0 0 99.9024390243903 949.0731707317073V74.9268292682926A49.951219512195124 49.951219512195124 0 1 0 0 74.9268292682926V949.0731707317073A49.951219512195124 49.951219512195124 0 0 0 49.9512195121951 999.0243902439024z" />
    <glyph glyph-name="cart"
      unicode="&#xEA11;"
      horiz-adv-x="1054.1176470588234" d="M1026.1633022624824 909.5228235294118L893.0433022624825 1009.814588235294A70.5054117647059 70.5054117647059 0 0 1 794.4381257918942 996.1110588235294L640.7477728507178 793.0578823529412H935.8404787330707C962.2837728507178 793.0578823529412 987.492243438953 784.6249411764705 1008.4240081448356 769.6263529411765L1039.8969493213062 811.1585882352941A70.11388235294118 70.11388235294118 0 0 1 1026.1633022624824 909.5228235294118zM225.0037728507178 744.7491764705883L194.8861257918942 894.2531764705882A37.044705882352936 37.044705882352936 0 0 1 158.5040081448354 923.828705882353H37.1298904977766C16.5896552036589 923.8287058823528 -0.0051683257528 907.3543529411764 -0.0051683257528 886.9948235294117C-0.0051683257528 866.6654117647058 16.6197728507178 850.2211764705883 37.0997728507178 850.2211764705883H128.0851846154236L162.5096552036589 679.3336470588235L235.7557728507178 315.5727058823531L250.4531846154236 242.6578823529412L251.6277728507177 236.905411764706A55.536941176470584 55.536941176470584 0 0 1 306.200949321306 192.5120000000001H845.7887140271882C872.3223610860118 192.5120000000001 895.1816552036589 211.0945882352943 900.3618904977766 236.905411764706L989.4498904977766 678.7312941176472A54.93458823529413 54.93458823529413 0 0 1 977.8847140271884 724.5703529411766A55.868235294117646 55.868235294117646 0 0 1 934.8164787330708 744.7792941176472H225.0338904977766zM322.7355375566001 81.1670588235295A79.51058823529412 79.51058823529412 0 1 1 481.7265963801295 81.1670588235295A79.51058823529412 79.51058823529412 0 0 1 322.7355375566001 81.1670588235295zM672.5218904977766 81.1670588235295A79.51058823529412 79.51058823529412 0 1 1 831.5430669683648 81.1670588235295A79.51058823529412 79.51058823529412 0 0 1 672.5218904977766 81.1670588235295z" />
    <glyph glyph-name="cart2"
      unicode="&#xEA12;"
      horiz-adv-x="1222.1935483870968" d="M1169.5731612903223 858.8387096774194L459.1483870967742 924.9032258064516C424.0681290322581 924.9032258064516 388.9878709677419 896.5945806451613 397.7414193548387 868.285935483871L511.7687741935484 434.1429677419356C529.3089032258065 396.3870967741936 555.6356129032258 396.3870967741936 590.7158709677419 396.3870967741936H1125.706322580645C1152.0330322580644 396.3870967741936 1178.3267096774193 424.6957419354839 1178.3267096774193 453.0043870967742L1222.1935483870968 792.7741935483871C1222.1935483870968 830.5300645161291 1204.6534193548387 858.8387096774194 1169.5731612903223 858.8387096774194zM1153.3873548387096 323.3858064516129H456.0103225806452L277.1406451612903 987.1690322580644C277.1736774193548 1005.568 250.3514838709677 1024 232.4810322580645 1024H44.6926451612903C17.8704516129032 1024 0 996.352 0 977.92S17.8704516129032 931.8069677419356 44.6926451612903 931.8069677419356H205.6588387096774L375.5107096774194 268.089806451613C384.4954838709678 231.225806451613 411.2846451612903 231.225806451613 420.2363870967742 231.225806451613H1144.4686451612902C1171.2908387096772 231.225806451613 1189.1612903225805 249.657806451613 1189.1612903225805 277.305806451613C1189.1612903225805 304.9868387096775 1171.2908387096775 323.4188387096774 1153.3873548387096 323.4188387096774zM462.4516129032258 99.0967741935484A99.09677419354838 99.09677419354838 0 1 1 660.6451612903226 99.0967741935484A99.09677419354838 99.09677419354838 0 0 1 462.4516129032258 99.0967741935484zM891.8709677419355 99.0967741935484A99.09677419354838 99.09677419354838 0 1 1 1090.0645161290322 99.0967741935484A99.09677419354838 99.09677419354838 0 0 1 891.8709677419355 99.0967741935484z" />
    <glyph glyph-name="cash"
      unicode="&#xEA13;"
      horiz-adv-x="1024" d="M512 0C229.2412631578947 0 0 229.2412631578948 0 512S229.2412631578947 1024 512 1024S1024 794.7587368421052 1024 512S794.7587368421052 0 512 0zM697.882947368421 333.258105263158V404.453052631579H549.1334736842105V440.778105263158H697.882947368421V514.6947368421054H549.1334736842105L735.9865263157894 768H626.4454736842105L514.3983157894736 587.1831578947368L399.4408421052631 768H287.9865263157894L475.5402105263157 514.6677894736843H326.7907368421052V444.5776842105264L475.5402105263157 440.805052631579V404.453052631579H326.7907368421052V333.258105263158H475.5402105263157V223.9865263157896H549.1065263157894V333.258105263158H697.8559999999999z" />
    <glyph glyph-name="circle"
      unicode="&#xEA14;"
      horiz-adv-x="1024" d="M471.9887736968935 901.0289777777778V513.8659555555555A40.96 40.96 0 0 1 512.9487736968935 472.9059555555556H900.1117959191156C923.8685959191156 472.9059555555556 943.1880625857822 452.6535111111111 941.0035292524489 428.9877333333333C917.9521514746712 179.7233777777776 700.7048625857822 -13.2437333333335 441.95144036356 2.7989333333334C207.3416625857824 17.3624888888888 16.4225514746712 208.2815999999999 1.8589959191157 442.8458666666667C-14.183670747551 701.5992888888889 178.8061959191157 918.8693333333334 428.0705514746712 941.9207111111112C451.7818403635601 944.1052444444445 472.0115292524491 924.8085333333333 472.0115292524491 901.0289777777778zM553.9087736968935 595.7859555555556V982.9034666666666C553.9087736968935 1006.7512888888888 574.2522403635601 1026.0252444444445 597.9862848080046 1023.8179555555554C822.9477070302268 1002.9511111111112 1002.033929252449 823.8648888888889 1022.9007736968935 598.9262222222222C1025.1080625857821 575.1921777777777 1005.8341070302268 554.848711111111 981.9862848080044 554.848711111111H594.8687736968935A40.96 40.96 0 0 0 553.9087736968935 595.808711111111z" />
    <glyph glyph-name="coupon"
      unicode="&#xEA15;"
      horiz-adv-x="1316.5714285714284" d="M834.2674285714286 474.1120000000001C834.3771428571429 466.2491428571429 828.928 462.5920000000001 818.5782857142858 462.5920000000001H714.3497142857143A22.491428571428568 22.491428571428568 0 0 1 702.4274285714285 459.0811428571429C698.6971428571428 456.9965714285714 697.0148571428572 458.9348571428573 697.0148571428572 454.6925714285716C697.0148571428572 450.0480000000001 697.0514285714286 445.6228571428573 697.6365714285714 440.6125714285716C698.2217142857143 435.5657142857143 698.3679999999999 435.7485714285716 698.3679999999999 432.5668571428573C698.3679999999999 425.9840000000002 703.9634285714285 423.6068571428573 714.3131428571428 425.9840000000002H817.078857142857C827.6479999999999 425.9840000000002 832.8411428571428 421.010285714286 832.8411428571428 410.8434285714287V377.3440000000001C832.8411428571428 366.5188571428572 825.1245714285715 360.9234285714287 810.4228571428571 360.9234285714287H779.1908571428571C770.9622857142856 360.9234285714287 762.3679999999999 360.5577142857143 753.2251428571428 360.1554285714286A297.6914285714286 297.6914285714286 0 0 0 728.6491428571428 359.2777142857143H714.3131428571428C705.0605714285714 359.2777142857143 700.1965714285715 353.6091428571428 700.1965714285715 342.4548571428571V265.2159999999999C700.1965714285715 259.4742857142856 695.9177142857143 256.694857142857 687.4331428571428 256.694857142857H650.4228571428571C636.7451428571429 256.694857142857 629.9062857142857 262.7657142857142 629.9062857142857 274.9074285714285C629.9062857142857 279.5154285714285 630.272 288.9142857142856 630.7108571428571 303.4331428571428C631.4422857142856 317.7691428571428 631.0765714285714 338.5417142857142 629.9428571428571 344.1005714285715C629.9428571428571 349.5862857142856 629.3577142857142 353.3165714285714 628.3337142857141 354.9622857142857C627.4194285714285 356.6080000000001 624.4205714285713 357.3394285714286 618.8982857142856 357.3394285714286H516.3154285714285C502.5645714285714 357.3394285714286 495.7257142857142 364.5074285714287 495.7257142857142 379.0262857142858C495.7257142857142 382.1714285714286 495.4331428571428 386.4502857142858 494.1897142857142 391.5702857142858A25.014857142857142 25.014857142857142 0 0 0 494.1897142857142 404.0045714285715C495.4331428571428 409.5634285714287 497.0057142857142 414.5005714285715 499.0537142857141 419.1817142857143C501.2479999999999 423.3874285714286 505.3805714285713 425.0697142857144 511.5977142857142 423.9725714285715H625.1885714285713C627.382857142857 423.9725714285715 628.3337142857141 426.7520000000001 628.3337142857141 432.4937142857143V454.2902857142858C628.3337142857141 459.8491428571429 621.9337142857141 462.5920000000001 609.4994285714284 462.5920000000001H510.0982857142856A77.53142857142858 77.53142857142858 0 0 0 498.9439999999998 463.2868571428572C495.6525714285713 463.7988571428572 494.1531428571427 466.9440000000001 494.1531428571427 472.3200000000001V489.3622857142858C494.1531428571427 498.1028571428573 493.6045714285713 504.7222857142857 492.5805714285713 509.3302857142858A14.08 14.08 0 0 0 497.2251428571428 525.7508571428572C502.4914285714285 530.3954285714286 509.4765714285714 532.3337142857142 517.814857142857 532.3337142857142C526.3359999999999 531.1634285714285 535.5885714285714 531.0171428571429 545.7919999999999 531.6022857142857C555.7028571428572 532.1874285714287 557.1291428571428 532.3337142857142 562.3588571428571 532.3337142857142H581.1931428571428C587.5565714285714 532.3337142857142 589.6411428571429 534.6742857142857 587.5565714285714 538.9531428571429C585.5085714285714 541.4399999999999 584.4845714285714 549.7417142857142 574.0251428571428 563.8948571428571C563.2365714285714 578.7062857142857 546.9622857142857 602.112 535.3691428571428 617.6548571428572A1450.5325714285711 1450.5325714285711 0 0 1 487.7531428571428 679.2045714285714C480.4388571428572 691.3828571428571 481.9748571428571 701.5131428571428 492.5074285714286 709.0468571428571C497.7371428571429 712.4480000000001 503.296 716.6171428571429 509.0377142857143 721.8102857142858A152.8685714285714 152.8685714285714 0 0 0 529.0057142857142 735.8171428571429C539.5017142857142 742.4365714285714 549.4857142857143 736.4388571428572 558.9942857142856 717.6777142857143C562.3588571428571 713.0331428571428 568.2468571428572 705.0605714285714 577.3531428571429 693.3577142857143C586.3862857142858 681.5451428571428 595.6388571428571 669.4765714285713 604.9645714285715 655.9451428571429C614.3634285714287 642.4502857142858 623.3965714285715 630.6377142857143 631.9908571428572 620.288C640.5120000000001 609.6457142857143 645.12 603.1360000000001 646.3634285714287 600.9417142857144C648.4114285714287 596.5165714285715 652.2148571428572 593.737142857143 658.0297142857144 592.6400000000001C663.8811428571429 591.5062857142857 668.0502857142858 593.3714285714286 670.0251428571429 597.6502857142857C670.9394285714285 600.0274285714286 675.3645714285715 606.7931428571429 683.4102857142857 618.6422857142858C691.3462857142857 630.0891428571429 700.16 643.0354285714286 709.5954285714287 657.5177142857144C719.1040000000002 671.9268571428572 728.1005714285715 685.4217142857144 736.4754285714286 698.4045714285714C745.0331428571429 711.0948571428571 750.336 719.1771428571428 752.4205714285714 722.432C757.6502857142857 730.2582857142859 762.2948571428572 735.1222857142857 765.7325714285714 737.3165714285715C769.4994285714287 739.5840000000001 775.5702857142857 738.8891428571429 784.2011428571428 735.7074285714286C789.3577142857142 733.5497142857143 795.2822857142858 730.2217142857144 801.3531428571429 725.8697142857144C807.8262857142857 721.3714285714286 812.1782857142857 717.9337142857144 814.08 715.7028571428573C825.7828571428572 703.4148571428573 829.0011428571429 692.8822857142858 823.5885714285715 684.2514285714287C821.6137142857144 680.7040000000002 815.7257142857144 672.4022857142859 806.3634285714286 659.0902857142858C796.489142857143 645.8514285714286 786.5051428571429 631.8080000000001 775.3508571428572 616.6674285714287C764.0868571428573 601.7462857142858 754.2491428571429 579.1085714285716 745.289142857143 565.5771428571429C736.2560000000001 552.2285714285715 731.3554285714287 544.2925714285715 730.0388571428572 542.3542857142859C727.2228571428572 536.8685714285715 728.32 533.5405714285715 734.025142857143 532.2240000000002C739.913142857143 531.0902857142858 745.6548571428573 530.5417142857144 750.7017142857144 530.5417142857144H815.2868571428573A16.457142857142856 16.457142857142856 0 0 0 828.6720000000001 523.9222857142859A20.114285714285714 20.114285714285714 0 0 0 834.2674285714287 510.793142857143V474.1120000000002zM105.7645714285714 1024C47.5062857142857 1024 0.1097142857143 975.6525714285714 0 915.968V694.3817142857142C41.3988571428571 685.568 82.0297142857143 659.8582857142858 104.192 624.6765714285714C119.7348571428572 599.9542857142858 134.144 570.5508571428571 134.144 539.0628571428572C134.144 507.4651428571428 118.7108571428571 473.8194285714285 103.1314285714286 449.024C81.0057142857143 413.9154285714285 41.3988571428572 392.4845714285715 0.0365714285714 383.6342857142858V118.8205714285714C0.0365714285714 59.2091428571429 47.3965714285714 10.8251428571429 105.8011428571429 10.7885714285715H1210.7702857142856C1269.2114285714285 10.7885714285715 1316.5714285714284 59.1725714285715 1316.5714285714284 118.8937142857143V384.0731428571429A155.94057142857145 155.94057142857145 0 0 0 1217.718857142857 456.3017142857143C1203.2365714285713 480.4388571428572 1184.2194285714286 508.7451428571428 1184.2194285714286 539.0628571428572C1184.2559999999999 569.3074285714285 1203.2365714285716 597.6868571428571 1217.718857142857 621.7874285714286A155.53828571428573 155.53828571428573 0 0 0 1316.5714285714284 693.9794285714286V915.968C1316.5348571428572 975.6525714285714 1269.174857142857 1024 1210.7702857142856 1024H105.8011428571429z" />
    <glyph glyph-name="cp-school"
      unicode="&#xEA16;"
      horiz-adv-x="1251.5555555555554" d="M625.7777777777777 1024L11.3777777777777 529.0666666666667L45.5111111111111 483.5555555555555L170.6666666666666 585.9555555555555V130.8444444444446C170.6666666666666 68.2666666666667 221.8666666666666 17.0666666666667 284.4444444444445 17.0666666666667H967.111111111111C1029.6888888888889 17.0666666666667 1080.888888888889 68.2666666666667 1080.888888888889 130.8444444444446V585.9555555555556L1200.3555555555556 489.2444444444445L1240.1777777777777 529.0666666666667L625.7777777777777 1024zM739.5555555555555 73.9555555555556H506.311111111111V273.0666666666667C506.311111111111 284.4444444444445 523.3777777777777 301.5111111111112 534.7555555555555 301.5111111111112H711.111111111111C722.4888888888887 301.5111111111112 733.8666666666666 290.1333333333335 733.8666666666666 278.7555555555556V73.9555555555556zM1024 130.8444444444446C1024 96.7111111111111 1001.2444444444446 73.9555555555556 967.111111111111 73.9555555555556H796.4444444444445V278.7555555555556C796.4444444444445 324.2666666666668 762.3111111111111 358.4000000000001 716.8 358.4000000000001H540.4444444444445C494.9333333333333 358.4000000000001 460.8 324.2666666666668 460.8 278.7555555555556V73.9555555555556H290.1333333333334C256 73.9555555555556 233.2444444444444 96.7111111111111 233.2444444444444 130.8444444444446V631.4666666666667L631.4666666666666 950.0444444444444L1029.6888888888889 631.4666666666667V130.8444444444444z" />
    <glyph glyph-name="gear"
      unicode="&#xEA17;"
      horiz-adv-x="1024" d="M903.155535565791 473.0326486486485C905.2588869171424 489.0845405405404 906.9194274576832 505.1364324324323 906.9194274576832 522.2399999999999C906.9194274576832 539.3435675675674 905.397265295521 555.3954594594593 903.155535565791 571.475027027027L1014.273373403629 654.3083243243243A24.492972972972975 24.492972972972975 0 0 1 1020.5557517820072 686.412108108108L915.3051571874128 859.9385945945945C908.9951031333586 871.0642162162162 894.7698058360614 875.0218378378378 883.201373403629 871.0642162162162L752.212400430656 820.8051891891892A394.2676756756757 394.2676756756757 0 0 1 663.29045448471 870.0678918918919L643.3362923225478 1002.9664864864864C641.78645448471 1014.950054054054 630.7161842144397 1024 617.4872112414668 1024H406.8476436738992C393.6463463766019 1024 382.6867788090344 1014.950054054054 381.0539139441695 1002.9664864864864L361.127427457683 870.0402162162162C329.0236436738992 857.4754594594594 299.4660220522776 840.3995675675676 272.1778058360614 820.8051891891892L141.1611571874127 871.0642162162162A26.153513513513516 26.153513513513516 0 0 1 109.0850490793046 859.9662702702703L3.6684004306559 686.163027027027C-3.2228428125873 675.0374054054054 -0.0678157855603 661.6147027027026 9.97845448471 654.003891891892L121.0686166468722 571.1705945945946C118.9929409711965 555.1187027027028 117.332400430656 538.624 117.332400430656 521.9632432432434C117.332400430656 505.4408648648649 118.9929409711965 488.8077837837839 121.0686166468722 472.7282162162163L9.97845448471 389.9502702702703A24.52064864864865 24.52064864864865 0 0 1 3.6684004306559 357.7911351351352L108.9466707009262 184.2646486486486C115.2290490793046 173.1943783783784 129.4820220522776 169.2367567567568 141.0227788090343 173.1943783783784L272.0671031333586 223.4257297297298A394.2676756756757 394.2676756756757 0 0 1 360.9890490793046 174.1907027027028L380.9155355657911 41.2644324324326C382.5760761063317 29.280864864865 393.5079679982236 20.2309189189191 406.7092652955209 20.2309189189191H617.2381301603857C630.4117517820073 20.2309189189191 641.371319349575 29.280864864865 643.0041842144398 41.2644324324326L662.958346376602 174.1907027027029C695.0621301603858 186.7554594594597 724.5920761063317 203.8590270270272 751.8802923225479 223.4257297297299L882.9246166468722 173.1667027027029C895.0742382684938 168.6555675675678 908.718346376602 173.1667027027029 915.028400430656 184.2646486486489L1020.251319349575 357.7911351351353A24.52064864864865 24.52064864864865 0 0 1 1013.9689409711966 389.9502702702704L903.1555355657912 473.0603243243245zM512.0982382684938 346.5548108108108C410.6115355657911 346.5548108108108 327.8335896198451 425.2644324324324 327.8335896198451 522.1016216216216C327.8335896198451 618.9664864864865 410.4731571874127 697.6761081081081 512.1259139441694 697.6761081081081C613.7786707009261 697.6761081081081 696.390562592818 618.9388108108108 696.390562592818 522.1016216216216C696.390562592818 425.2367567567567 613.7786707009261 346.5271351351351 512.1259139441694 346.5271351351351z" />
    <glyph glyph-name="home-fill"
      unicode="&#xEA18;"
      horiz-adv-x="1163.6363636363637" d="M514.4203636363636 318.7898181818182C514.4203636363636 331.1010909090909 524.9396363636364 341.504 537.3672727272727 341.504H652.2181818181818C664.6690909090909 341.504 675.1883636363635 331.1010909090909 675.1883636363635 318.7898181818182L675.3512727272727 68.7243636363637H514.4203636363636V318.7898181818182zM640.3490909090909 980.829090909091A69.58545454545455 69.58545454545455 0 0 1 542.9294545454545 980.829090909091L32.7214545454545 488.1454545454545C27.0196363636363 483.6538181818182 23.2727272727273 477.4400000000001 23.2727272727273 470.0858181818182C23.2727272727273 457.5185454545455 33.5592727272727 447.3483636363636 46.2429090909091 447.3483636363636C53.4574545454545 447.3483636363636 59.6014545454545 450.8625454545455 63.8370909090909 456.0058181818182C64.8843636363636 455.4240000000001 169.9141818181818 557.1025454545455 169.9141818181818 557.1025454545455V91.4618181818181C169.9141818181818 53.9694545454546 200.9134545454546 23.2727272727273 238.8014545454545 23.2727272727273H950.784C988.672 23.2727272727273 1019.6712727272728 53.9694545454546 1019.6712727272728 91.4618181818181L1021.626181818182 534.8538181818182L1100.637090909091 456.5643636363636C1106.1527272727276 451.5141818181818 1111.4589090909094 449.1170909090909 1117.3934545454547 449.1170909090909A22.853818181818177 22.853818181818177 0 0 1 1140.3636363636365 471.8545454545454A22.271999999999995 22.271999999999995 0 0 1 1134.2429090909093 487.0283636363636C1134.3360000000002 487.1447272727272 640.3490909090912 980.829090909091 640.3490909090912 980.829090909091z" />
    <glyph glyph-name="home"
      unicode="&#xEA19;"
      horiz-adv-x="1157.5652173913043" d="M538.0897391304347 936.1808695652174A60.01530434782608 60.01530434782608 0 0 0 622.903652173913 936.1808695652174L1101.4010434782608 456.6372173913044L1135.304347826087 490.5405217391304L656.8514782608696 970.128695652174A107.96521739130434 107.96521739130434 0 0 1 504.2309565217392 970.1732173913044L22.2608695652174 466.5878260869565L56.0751304347826 432.528695652174L167.6243478260869 549.1088695652174V95.0539130434784A72.88208695652173 72.88208695652173 0 0 1 240.1947826086956 22.2608695652174H457.9060869565217C484.6413913043478 22.2608695652174 506.2566956521739 41.0045217391304 506.2566956521739 67.784347826087V286.0966956521741C506.2566956521739 312.8542608695654 527.9387826086956 334.6253913043479 554.6518260869565 334.6253913043479H627.2222608695653C653.9575652173913 334.6253913043479 675.5728695652174 312.8542608695654 675.5728695652174 286.0966956521741V67.784347826087C675.5728695652174 41.0045217391304 697.2549565217391 22.2608695652174 723.9680000000001 22.2608695652174H941.6347826086956C981.5485217391304 22.2608695652174 1014.2052173913042 54.9843478260869 1014.2052173913042 95.031652173913V383.0650434782608H965.8100869565216V95.0093913043479C965.8100869565216 81.8754782608695 954.7464347826086 70.7895652173913 941.6347826086956 70.7895652173913H723.9234782608695V286.0966956521741A96.96834782608694 96.96834782608694 0 0 1 627.1777391304347 383.0650434782611H554.6073043478259A96.99060869565217 96.99060869565217 0 0 1 457.8615652173912 286.0966956521741V70.7895652173914H240.1947826086956A24.55373913043478 24.55373913043478 0 0 0 215.9972173913043 95.0316521739133V599.6855652173915L538.1120000000001 936.1808695652176z" />
    <glyph glyph-name="huangguan"
      unicode="&#xEA1A;"
      horiz-adv-x="1316.5714285714284" d="M1003.8899614245934 0H313.5311042817363C245.4351042817363 0 189.0785328531648 42.7154285714286 174.9619614245934 102.5097142857144L1.2111042817363 888.3931428571428C-3.506610003978 905.472 5.8922471388791 924.7085714285714 24.6899614245934 933.2297142857142C41.1471042817363 941.7874285714286 64.589389996022 939.6297142857142 78.7059614245934 928.9508571428572L369.8876757103077 645.7051428571428L621.1333899960221 1007.9817142857142C639.9311042817362 1029.3394285714285 677.4899614245935 1029.3394285714285 696.2876757103077 1007.9817142857142L947.533389996022 645.7051428571428L1238.7151042817363 928.9508571428572C1252.831675710308 941.750857142857 1276.310532853165 941.750857142857 1292.7311042817362 933.2297142857142C1309.1882471388792 924.7085714285714 1318.550532853165 905.472 1316.2099614245935 888.3931428571428L1142.4591042817362 102.4731428571429C1128.342532853165 42.7520000000001 1071.9859614245936 0 1003.8899614245934 0z" />
    <glyph glyph-name="huodong"
      unicode="&#xEA1B;"
      horiz-adv-x="1920" d="M1792 1024H128C57.6 1024 0 966.4 0 896V128C0 57.6 57.6 0 128 0H1792C1862.4 0 1920 57.6 1920 128V896C1920 966.4 1862.4 1024 1792 1024zM1856 128C1856 92.8 1827.2 64 1792 64H128C92.8 64 64 92.8 64 128V896C64 931.2 92.8 960 128 960H1792C1827.2 960 1856 931.2 1856 896V128zM246.4 211.2000000000001L300.8 188.8000000000001C339.2 275.2000000000001 377.6 368 412.8 467.2L361.6 486.4000000000001C329.6 396.8000000000001 291.2000000000001 304.0000000000001 246.4000000000001 211.2000000000001zM364.8 537.6L403.2 576C368 614.4 323.2 652.8 268.8 691.2L230.4 652.8C288 611.2 332.8 572.8 364.8 537.6zM249.6 835.2C307.2 800 352 764.8 384 732.8L422.4 771.2C384 806.4 339.2 838.4 288 873.6L249.6 835.2zM704 787.2C774.4 796.8 835.2 812.8 889.6 832L864 880C752 841.6 614.4 822.4 444.8 822.4L460.8 771.2C524.8 771.2 585.6 774.4 646.4 780.8V659.2H425.6V608H646.4V489.6H480V179.2000000000001H534.4V220.8000000000001H822.4V179.2000000000001H876.8V486.4000000000001H704V608H924.8V662.4H704V787.2zM822.4 435.2000000000001V272H534.4V435.2000000000001H822.4zM1030.4 828.8H1308.8000000000002V774.4H1030.4zM1507.2 880H1449.6000000000001V739.2H1353.6000000000001V684.8H1449.6000000000001V672C1449.6000000000001 460.8 1398.4 307.2000000000001 1299.2 211.2000000000001L1344 172.8000000000001C1449.6 278.4000000000001 1504 444.8000000000001 1504 672V684.8000000000001H1619.2C1619.2 464 1612.8 332.8000000000001 1609.6000000000001 291.2000000000001C1603.2 252.8000000000001 1584.0000000000002 233.6 1552.0000000000002 233.6C1539.2000000000003 233.6 1513.6000000000001 233.6 1475.2000000000003 236.8000000000001L1488.0000000000002 188.8000000000001C1523.2000000000003 188.8000000000001 1545.6000000000001 185.6 1558.4000000000003 185.6C1619.2000000000003 185.6 1654.4000000000003 214.4 1664.0000000000002 272C1670.4000000000003 332.8 1673.6000000000001 489.6 1673.6000000000001 739.2H1504V880zM1350.4 294.4C1318.4 371.2 1283.2 441.5999999999999 1248 508.8L1200 486.4C1219.2 454.4 1238.4 416 1257.6 371.2C1196.8 348.8 1136 332.8 1075.1999999999998 319.9999999999999C1097.6 371.2 1126.3999999999999 454.3999999999999 1155.1999999999998 569.5999999999999H1331.1999999999998V623.9999999999999H998.4V569.5999999999999H1104C1065.6 428.8 1033.6 345.5999999999999 1011.2 313.5999999999999L998.4 310.3999999999999L1011.2 259.1999999999998C1107.2 275.1999999999998 1196.8 297.5999999999998 1276.8000000000002 329.5999999999998C1286.4 310.3999999999998 1292.8000000000002 291.1999999999998 1299.2000000000003 271.9999999999998L1350.4000000000003 294.3999999999998z" />
    <glyph glyph-name="lingquan"
      unicode="&#xEA1C;"
      horiz-adv-x="1920" d="M1603.2 851.2L1552 883.2C1526.4 844.8 1500.8 806.4 1462.4 774.4L1507.2 742.4C1545.6000000000001 774.4 1577.6000000000001 812.8 1603.2 851.2zM374.4 806.4C412.8 761.6 451.2 704 489.6 646.4L534.4 684.8C489.6 748.8 444.8 806.4 400 857.5999999999999L406.4 876.8H355.2C310.4 774.4 259.2 684.8 201.6 614.4C214.4 595.2 227.2 576 240 563.2C291.2 640 336 723.2 374.4 806.4zM329.6 678.4C355.2 633.5999999999999 374.4 595.2 387.2 563.2L438.4 588.8C419.2 627.2 400 665.6 374.4 704L329.6 678.4zM1206.3999999999999 787.2C1180.8 819.2 1148.8 851.2 1110.3999999999999 883.2L1065.6 851.2C1097.6 819.2 1129.6 780.8 1155.1999999999998 748.8L1206.3999999999999 787.1999999999999zM515.1999999999999 806.4H700.8L681.5999999999999 704H547.1999999999999V339.2000000000001H604.8V652.8H854.4V345.6H905.6V704H739.2L758.4000000000001 806.4H944.0000000000002V857.6H515.1999999999999zM502.4 480V531.2H227.2V480H444.8C419.2 416 393.6 358.4 368 313.6C348.8 339.2000000000001 323.2 364.8000000000001 297.5999999999999 396.8000000000001L252.7999999999999 364.8000000000001C303.9999999999999 300.8000000000001 355.2 236.8000000000001 406.3999999999999 160L457.5999999999999 198.4C438.3999999999999 224 419.1999999999999 249.6 399.9999999999999 268.8C431.9999999999999 326.4 470.3999999999999 396.8 502.3999999999999 480zM1705.6 550.4V601.5999999999999H1263.9999999999998C1283.1999999999998 627.2 1302.3999999999999 659.2 1315.1999999999998 691.1999999999999H1667.1999999999998V736H1334.3999999999999C1347.1999999999998 780.8 1366.3999999999999 825.5999999999999 1379.1999999999998 876.8L1315.1999999999998 896C1302.3999999999999 838.4 1289.6 787.1999999999999 1270.3999999999999 742.4H1007.9999999999998V691.2H1244.8C1232 659.2 1212.8 633.5999999999999 1193.6 601.6H975.9999999999998V550.4000000000001H1148.8C1097.6 499.2 1040 454.4000000000001 963.2 422.4000000000001C975.9999999999998 403.2000000000001 988.8 390.4000000000001 1001.6 371.2000000000001C1040 390.4000000000001 1072 416 1104 435.2000000000001V396.8000000000001H1212.8C1206.3999999999999 352.0000000000001 1187.2 313.6 1168 288.0000000000001C1136 256.0000000000001 1078.4 224.0000000000001 1001.6 204.8000000000001C1014.4 192.0000000000001 1020.8 172.8000000000001 1033.6000000000001 147.2000000000001C1123.2 172.8000000000001 1180.8000000000002 204.8000000000001 1212.8000000000002 243.2000000000001C1244.8000000000002 275.2000000000001 1264.0000000000002 326.4000000000001 1270.4 396.8000000000001H1494.4C1488 345.6 1481.6000000000001 307.2000000000001 1481.6000000000001 281.6C1475.2 243.2000000000001 1449.6000000000001 230.4 1404.8000000000002 230.4C1366.4 230.4 1328.0000000000002 230.4 1283.2000000000003 236.8C1289.6000000000004 217.5999999999999 1296.0000000000002 198.4 1296.0000000000002 172.8H1417.6000000000001C1481.6000000000001 172.8 1526.4 204.8 1532.8000000000002 275.2C1539.2000000000003 326.4 1545.6000000000001 377.5999999999999 1552.0000000000002 435.2C1584.0000000000002 409.5999999999999 1628.8000000000002 390.4 1667.2000000000003 377.5999999999999L1705.6000000000004 435.2C1616.0000000000005 454.4 1545.6000000000004 492.8 1494.4000000000003 550.3999999999999H1705.6000000000004zM1532.8 448H1123.2C1161.6000000000001 480 1200 512 1225.6000000000001 550.4H1436.8000000000002C1462.4 505.6 1494.4 473.6 1532.8000000000002 448zM752 505.6V620.8H700.8V512C700.8 435.2000000000001 688 371.2000000000001 656 332.8C624 288 566.4 243.2 483.2 204.8C496 192 508.8 172.8 528 153.5999999999999C611.2 198.3999999999999 675.2 249.5999999999999 707.2 300.8C707.2 307.2 713.6 307.2 713.6 313.5999999999999C777.6 262.3999999999999 841.6 211.1999999999999 899.2 153.5999999999999L944 198.3999999999999C880 255.9999999999999 809.6 307.1999999999998 739.2 364.7999999999999C745.6 403.1999999999998 752 454.3999999999999 752 505.5999999999999zM1782.3999999999999 1024H131.2C54.4 1024 -3.2 960 -3.2 889.6V140.8000000000001C-3.2 64 54.4 0 131.2 0H1788.8C1859.2 0 1923.2 64 1923.2 134.4V889.6C1916.8 960 1859.2 1024 1782.3999999999999 1024zM1852.8 134.4C1852.8 96 1820.8 64 1782.3999999999999 64H131.2C92.8 64 60.8 96 60.8 134.4V889.6C60.8 928 92.8 960 131.2 960H1788.8C1820.8 960 1852.8 928 1852.8 889.6V134.4z" />
    <glyph glyph-name="menu"
      unicode="&#xEA1D;"
      horiz-adv-x="1536" d="M464 864H1264C1308.8 864 1344 899.2 1344 944S1308.8 1024 1264 1024H464C419.2 1024 384 988.8 384 944S419.2 864 464 864zM464 448H1136C1180.8 448 1216 483.2 1216 528S1180.8 608 1136 608H464C419.2 608 384 572.8 384 528S419.2 448 464 448zM1456 160H464C419.2 160 384 124.8 384 80S419.2 0 464 0H1456C1500.8 0 1536 35.2 1536 80S1500.8 160 1456 160zM0 928A96 96 0 0 1 192 928A96 96 0 0 1 0 928M0 512A96 96 0 0 1 192 512A96 96 0 0 1 0 512M0 96A96 96 0 0 1 192 96A96 96 0 0 1 0 96" />
    <glyph glyph-name="micro-consult"
      unicode="&#xEA1E;"
      horiz-adv-x="1024" d="M825.6 470.3786666666667A25.6 25.6 0 1 0 774.4000000000001 470.3786666666667V606.9333333333334C774.4000000000001 751.8506666666667 656.9173333333334 869.3333333333334 511.9999999999999 869.3333333333334C367.0826666666667 869.3333333333334 249.6 751.8506666666667 249.6 606.9333333333334V470.3573333333334A25.6 25.6 0 1 0 198.4 470.3573333333334V606.9333333333334C198.4 780.1386666666667 338.7946666666667 920.5333333333334 511.9999999999999 920.5333333333334S825.6 780.1386666666667 825.6 606.9333333333334V470.3573333333334zM100.2666666666666 501.3333333333334V394.6666666666668A49.06666666666666 49.06666666666666 0 0 1 198.4 394.6666666666668V501.3333333333334A49.06666666666666 49.06666666666666 0 0 1 100.2666666666667 501.3333333333334zM149.3333333333333 601.6A100.26666666666668 100.26666666666668 0 0 0 249.6 501.3333333333334V394.6666666666668A100.26666666666668 100.26666666666668 0 0 0 49.0666666666666 394.6666666666668V501.3333333333334A100.26666666666668 100.26666666666668 0 0 0 149.3333333333333 601.6zM874.6666666666666 550.4000000000001A49.06666666666666 49.06666666666666 0 0 1 825.6 501.3333333333334V394.6666666666668A49.06666666666666 49.06666666666666 0 0 1 923.7333333333333 394.6666666666668V501.3333333333334A49.06666666666666 49.06666666666666 0 0 1 874.6666666666667 550.4000000000001zM874.6666666666666 601.6A100.26666666666668 100.26666666666668 0 0 0 974.9333333333334 501.3333333333334V394.6666666666668A100.26666666666668 100.26666666666668 0 0 0 774.4000000000001 394.6666666666668V501.3333333333334A100.26666666666668 100.26666666666668 0 0 0 874.6666666666667 601.6zM600.0213333333334 152.5333333333333A25.6 25.6 0 0 0 600.0213333333334 203.7333333333334H650.6666666666666A123.73333333333333 123.73333333333333 0 0 1 774.3999999999999 327.4666666666666V405.3333333333334A25.6 25.6 0 1 0 825.5999999999999 405.3333333333334V327.4666666666667A174.93333333333334 174.93333333333334 0 0 0 650.6666666666665 152.5333333333335H600.0213333333332zM490.6666666666666 230.4A38.4 38.4 0 0 1 490.6666666666666 153.5999999999999H533.3333333333333A38.4 38.4 0 0 1 533.3333333333333 230.4H490.6666666666666zM490.6666666666666 281.5999999999999H533.3333333333333A89.6 89.6 0 0 0 533.3333333333333 102.4H490.6666666666666A89.6 89.6 0 0 0 490.6666666666666 281.5999999999999z" />
    <glyph glyph-name="micro-logo"
      unicode="&#xEA1F;"
      horiz-adv-x="4450.461538461539" d="M1479.266461538462 763.8646153846154L1517.5876923076928 938.6535384615383H1365.5630769230772L1315.0326153846158 710.0258461538461H1363.003076923077L1315.0326153846154 463.7538461538461H1361.979076923077V34.0283076923075H1523.6529230769231V545.476923076923H1483.3624615384613L1538.9341538461538 763.8252307692308zM2292.2436923076925 876.8984615384616H2087.719384615385L2106.072615384616 951.9655384615384H1994.3778461538463L1952.5907692307696 729.9150769230769H1902.0996923076927V995.5643076923076H1733.8092307692311V729.9150769230769H1673.117538461539V952.2412307692308H1571.111384615385V652.1304615384615H1965.351384615385C1970.3138461538465 652.1304615384615 1975.0006153846157 652.5243076923077 1979.372307692308 653.2332307692308H2048.8073846153848L2074.092307692308 798.7987692307693H2137.8560000000007L2091.3821538461543 529.4867692307691L2060.7409230769235 593.2898461538462H1571.0326153846158V517.5532307692308H1968.4627692307697L2043.3329230769236 321.6147692307692L1995.6381538461544 107.7563076923077H1949.51876923077V465.6836923076922H1576.152615384616V50.8849230769231H1723.0572307692312V408.8516923076924H1815.3747692307695V50.8849230769231H2053.5335384615387V51.9089230769231H2107.6086153846154L2133.6024615384617 156.0812307692307L2174.4443076923076 51.9089230769231H2293.7796923076926L2191.2615384615383 337.0535384615385L2292.2436923076925 876.8984615384616zM2938.6240000000003 800.1378461538461H3329.319384615385V874.9292307692308H2968.201846153847L3015.187692307693 995.5643076923076H2772.3815384615386L2724.4504615384617 874.9292307692308H2429.538461538462V800.0984615384615H2694.793846153847L2633.5901538461544 645.5926153846153H2395.904000000001V569.8166153846154H2603.972923076924L2515.2393846153855 344.4578461538461H2979.3870769230775L2921.80676923077 197.3956923076922H2624.8861538461542L2716.4553846153854 60.3372307692307H3107.268923076924L3137.5163076923086 136.073846153846L3249.7230769230778 420.233846153846H2791.680000000001L2849.8510769230784 569.8166153846153H3362.9538461538464V645.5926153846153H2879.428923076923zM3661.7649230769234 278.9218461538461L3636.2830769230777 881.8215384615385H3476.8147692307693L3502.336 278.9612307692306zM4429.764923076924 881.7821538461538H4270.336L4244.81476923077 278.9218461538461H4404.283076923078zM4212.322461538462 995.5643076923076H3988.8935384615393V190.9366153846153H3931.7858461538463V995.524923076923H3708.396307692308L3733.8781538461544 190.8972307692308H3476.81476923077V49.6246153846154H4443.864615384616V190.8578461538462H4186.801230769232zM516.6276923076925 1016.9107692307692C234.9489230769233 1016.9107692307692 6.5969230769233 785.7230769230769 6.5969230769233 500.6572307692308C6.5969230769233 265.6886153846154 161.7723076923079 67.5052307692307 373.9766153846157 5.0412307692308L420.9230769230772 59.5101538461538C220.6916923076925 104.0147692307692 70.3606153846156 284.8295384615384 70.3606153846156 500.6572307692308C70.3606153846156 749.7255384615385 270.5526153846157 952.3987692307692 516.6276923076925 952.3987692307692C762.7027692307695 952.3987692307692 962.9341538461542 749.7255384615385 962.9341538461542 500.6572307692308C962.9341538461542 284.5144615384616 812.0910769230771 103.4239999999999 611.4264615384618 59.3132307692307L517.4547692307694 170.6535384615384L421.7501538461541 59.5101538461538A440.635076923077 440.635076923077 0 0 1 610.8750769230771 58.9981538461537L656.9550769230771 4.3716923076921C870.4196923076926 66.0873846153845 1026.6584615384618 264.8615384615383 1026.6584615384618 500.6572307692306C1026.6584615384618 785.8018461538461 798.3064615384618 1016.9107692307692 516.6276923076925 1016.9107692307692M611.2295384615387 341.0707692307692C588.8984615384618 325.7895384615383 559.9507692307695 318.148923076923 524.2289230769234 318.148923076923C498.2744615384618 318.148923076923 477.361230769231 321.9298461538462 461.3710769230772 329.5704615384615C445.420307692308 337.1323076923076 433.0141538461541 346.7421538461538 424.2707692307695 358.4393846153846A216.41846153846157 216.41846153846157 0 0 0 399.7341538461542 402.0775384615385C393.511384615385 416.7286153846153 386.028307692308 427.7956923076923 377.2061538461542 435.2393846153846A48.16738461538463 48.16738461538463 0 0 1 344.9895384615388 446.4246153846155C329.3144615384619 446.4246153846155 316.3963076923081 441.6590769230769 306.2350769230773 432.0886153846153A45.8043076923077 45.8043076923077 0 0 1 291.0326153846157 397.5876923076924C291.0326153846157 374.4689230769231 299.500307692308 350.6806153846153 316.3963076923081 326.1439999999999A187.0769230769231 187.0769230769231 0 0 1 382.2867692307696 267.460923076923C420.4110769230773 247.0596923076922 468.8147692307695 236.8590769230769 527.4978461538465 236.8590769230769C576.4135384615387 236.8590769230769 618.7520000000003 244.3421538461538 654.4344615384618 259.2295384615385C690.1169230769234 274.1563076923077 717.2135384615389 294.7938461538461 735.724307692308 321.1421538461539C754.2350769230773 347.5298461538462 763.5298461538465 377.1864615384615 763.5298461538465 410.2695384615385C763.5298461538465 437.8387692307691 758.1735384615388 461.1544615384615 747.500307692308 480.1772307692307A134.41969230769232 134.41969230769232 0 0 1 702.8775384615388 527.36C683.8153846153849 539.8055384615385 660.7360000000003 550.3606153846154 633.5606153846157 559.0646153846153C606.3852307692312 567.7292307692308 576.0196923076926 575.7243076923077 542.503384615385 582.9316923076923A1540.844307692308 1540.844307692308 0 0 0 484.8836923076926 597.1101538461538A188.25846153846157 188.25846153846157 0 0 0 450.4221538461542 610.5009230769231A80.73846153846154 80.73846153846154 0 0 0 423.6406153846158 631.0203076923076A43.40184615384615 43.40184615384615 0 0 0 413.9126153846157 659.3772307692308C413.9126153846157 677.0215384615385 423.4436923076927 692.1452307692308 442.5058461538465 704.6695384615384C461.5680000000003 717.2726153846154 486.6166153846157 723.5347692307693 517.7304615384619 723.5347692307693C551.2861538461542 723.5347692307693 575.6258461538465 717.7452307692308 590.7495384615388 706.2055384615385C605.8732307692311 694.6264615384615 618.8701538461542 678.5181538461538 629.7009230769233 657.8806153846153C638.0504615384618 643.4658461538461 645.8486153846158 633.0683076923076 653.0166153846156 626.7667692307693C660.145230769231 620.4258461538461 670.6609230769234 617.2356923076923 684.4455384615387 617.2356923076923C699.569230769231 617.2356923076923 712.2116923076925 622.5132307692309 722.3729230769234 633.0683076923076C732.4947692307695 643.6233846153846 737.5753846153848 655.5175384615384 737.5753846153848 668.7113846153845C737.5753846153848 683.1261538461538 733.5187692307694 697.9347692307692 725.3661538461541 713.0978461538461C717.292307692308 728.2609230769231 704.4529230769234 742.7150769230768 686.8873846153849 756.5390769230769C669.2824615384618 770.3236923076922 647.1876923076926 781.3513846153845 620.5636923076926 789.700923076923C593.9396923076926 798.0504615384615 562.353230769231 802.2252307692306 525.8436923076925 802.2252307692306C480.1575384615388 802.2252307692306 440.4184615384619 795.9236923076922 406.6264615384618 783.3599999999999C372.8344615384618 770.8356923076922 346.9981538461542 752.836923076923 329.1569230769233 729.481846153846A128.59076923076924 128.59076923076924 0 0 1 302.3753846153849 649.2947692307691C302.3753846153849 617.7476923076922 310.8430769230772 591.3206153846153 327.7390769230772 570.052923076923C344.6744615384618 548.7852307692306 367.5175384615387 532.0073846153845 396.268307692308 519.7193846153845C425.0978461538464 507.4313846153844 460.8590769230772 496.6399999999998 503.5520000000002 487.4633846153844C535.4535384615388 480.7679999999998 560.9353846153849 474.4270769230767 579.9975384615387 468.4406153846152C599.0596923076926 462.4935384615383 614.6166153846157 453.8683076923074 626.6289230769233 442.5255384615382C638.6806153846156 431.2221538461536 644.7064615384619 416.4923076923075 644.7064615384619 398.3359999999998C644.7064615384619 375.4929230769228 633.5212307692311 356.3913846153844 611.2295384615388 341.1101538461536" />
    <glyph glyph-name="micro_live"
      unicode="&#xEA20;"
      horiz-adv-x="1024" d="M512 0C229.2337777777778 0 0 229.2337777777779 0 512S229.2337777777778 1024 512 1024S1024 794.7662222222223 1024 512S794.7662222222223 0 512 0zM227.5555555555556 597.3333333333334V398.2222222222223H284.4444444444445V597.3333333333334H227.5555555555556zM398.2222222222222 682.6666666666667V341.3333333333334H455.1111111111111V682.6666666666667H398.2222222222222zM739.5555555555555 682.6666666666667V341.3333333333334H796.4444444444443V682.6666666666667H739.5555555555555zM568.8888888888889 824.8888888888889V199.1111111111112H625.7777777777777V824.8888888888889H568.8888888888889z" />
    <glyph glyph-name="my-class-fill"
      unicode="&#xEA21;"
      horiz-adv-x="1095.4418604651162" d="M1013.9981395348836 1024H647.2870697674418A74.99013953488371 74.99013953488371 0 0 1 572.5826976744186 949.1527441860466V298.1030697674419L572.5350697674419 298.5793488372093C572.2969302325581 284.9339534883722 561.342511627907 274.0033488372093 547.6971162790699 274.0033488372093C534.1231627906977 274.0033488372093 523.1687441860465 284.9577674418605 522.9067906976744 298.555534883721C522.9067906976744 298.4126511627907 522.8115348837209 298.2697674418605 522.8115348837209 298.1030697674419V949.176558139535A74.99013953488371 74.99013953488371 0 0 1 448.1309767441861 1024H74.6805581395349A74.99013953488371 74.99013953488371 0 0 1 0 949.1527441860466V200.7516279069768A74.99013953488371 74.99013953488371 0 0 1 74.6805581395349 125.9043720930232H448.1309767441861C489.3291162790698 125.9043720930232 522.8353488372094 92.3266976744187 522.8353488372094 51.0571162790698V26.1000930232558A24.909395348837208 24.909395348837208 0 0 1 572.606511627907 26.1000930232558V51.0571162790698A74.84725581395347 74.84725581395347 0 0 0 647.3108837209303 125.9043720930232H1020.7613023255814A74.99013953488371 74.99013953488371 0 0 1 1095.4418604651162 200.7278139534884V949.1527441860466C1095.4418604651162 990.327069767442 1055.0533953488373 1024 1013.9981395348836 1024" />
    <glyph glyph-name="my-class"
      unicode="&#xEA22;"
      horiz-adv-x="1117.090909090909" d="M743.1447272727272 1000.7272727272727C728.5061818181817 1000.7272727272727 716.7301818181818 988.8581818181818 716.7301818181818 974.242909090909C716.7301818181818 959.6276363636364 728.5061818181817 947.7818181818182 743.1447272727272 947.7818181818182H1006.498909090909C1020.834909090909 947.7818181818182 1040.1745454545455 935.6567272727272 1040.1745454545455 921.2974545454546L1040.9658181818181 208.0581818181818C1040.9658181818181 193.6989090909091 1028.7941818181816 181.5738181818182 1014.528 181.5738181818182H664.6690909090909C621.2887272727272 181.5738181818182 583.0516363636364 161.0938181818181 558.9643636363637 128.6283636363636A130.816 130.816 0 0 1 453.2363636363637 181.5738181818182H103.3309090909091A26.810181818181817 26.810181818181817 0 0 0 76.9163636363636 208.0581818181818L76.1018181818182 921.2974545454546C76.1018181818182 935.6567272727272 88.2036363636364 947.7818181818182 102.5396363636363 947.7818181818182H505.2741818181818C519.586909090909 947.7818181818182 531.712 935.6567272727272 531.712 921.2974545454546L532.48 340.4101818181818A26.43781818181818 26.43781818181818 0 1 1 585.3323636363637 340.4101818181818L584.5643636363636 921.2974545454546A79.61599999999999 79.61599999999999 0 0 1 505.2974545454546 1000.7272727272727H102.5629090909091A79.59272727272727 79.59272727272727 0 0 1 23.2727272727273 921.2974545454546L24.064 208.0581818181818A79.59272727272727 79.59272727272727 0 0 1 103.3309090909091 128.6283636363636H453.2130909090909A79.45309090909092 79.45309090909092 0 0 0 532.5032727272727 49.1752727272727S531.7352727272727 23.2727272727273 558.5454545454545 23.2727272727273S585.3556363636364 49.1752727272727 585.3556363636364 49.1752727272727A79.45309090909092 79.45309090909092 0 0 0 664.6458181818182 128.6283636363636H1014.5280000000002A79.59272727272727 79.59272727272727 0 0 1 1093.8181818181818 208.0581818181818L1093.0269090909092 921.2974545454545C1093.0269090909092 964.9803636363636 1050.112 1000.7272727272727 1006.498909090909 1000.7272727272727H743.1447272727272z" />
    <glyph glyph-name="new-cart"
      unicode="&#xEA23;"
      horiz-adv-x="1131.7894736842104" d="M292.3217924147366 447.0029473684212L293.6691608357893 440.3200000000001L976.4615818884208 525.9048421052631L1035.7996871515786 849.3271578947368H410.4590555726313A41.28336842105263 41.28336842105263 0 0 0 369.0678976778945 890.4488421052631C369.0678976778945 913.1385263157894 387.6615818884208 931.5974736842106 410.4590555726313 931.5974736842106H1095.0030555726312C1105.9436871515786 931.5974736842106 1116.2375818884207 926.800842105263 1123.2438976778944 918.4741052631578C1130.250213467368 910.0395789473685 1133.1335818884206 899.1528421052632 1131.193371362105 888.4547368421053L1059.486423993684 497.7178947368421A39.80126315789474 39.80126315789474 0 0 0 1025.1824239936839 465.4618947368422L330.5331608357892 378.4218947368421L322.772318730526 377.4517894736843L337.5394766252628 302.2686315789474H1018.6611608357892C1041.4586345199996 302.2686315789474 1060.079266098947 283.8366315789474 1060.079266098947 261.12C1060.079266098947 238.4033684210526 1041.4586345199996 220.0252631578948 1018.6611608357892 220.0252631578948H294.7740029410524A39.8821052631579 39.8821052631579 0 0 0 255.5925292568419 252.0656842105264L126.1104239936839 911.2522105263158L22.7942134673681 953.5056842105262A36.45978947368421 36.45978947368421 0 0 0 2.8531608357892 973.2581052631577A35.8938947368421 35.8938947368421 0 0 0 2.8531608357892 1001.2833684210526A37.05263157894736 37.05263157894736 0 0 0 36.8876871515787 1024C41.657371362105 1024 46.3731608357892 1023.0298947368422 50.8464239936839 1021.1974736842106L170.9238976778945 972.0454736842104C183.3466345199997 966.9254736842104 192.3201082042103 956.0926315789474 194.9070555726313 942.9423157894736L292.3217924147366 447.0029473684212zM920.276318730526 126.1675789473685C955.3078976778944 126.1675789473685 983.7912660989472 97.8458947368422 983.7912660989472 63.0298947368422A63.32631578947369 63.32631578947369 0 0 0 920.276318730526 0A63.32631578947369 63.32631578947369 0 0 0 856.734423993684 63.0298947368422A63.40715789473685 63.40715789473685 0 0 0 920.276318730526 126.1675789473685zM420.7798976778945 126.1675789473685C455.811476625263 126.1675789473685 484.2948450463155 97.8458947368422 484.2948450463155 63.0298947368422A63.32631578947369 63.32631578947369 0 0 0 420.7798976778945 0A63.32631578947369 63.32631578947369 0 0 0 357.2649503094734 63.0298947368422A63.40715789473685 63.40715789473685 0 0 0 420.7798976778945 126.1675789473685z" />
    <glyph glyph-name="new-collection"
      unicode="&#xEA24;"
      horiz-adv-x="1075.2" d="M1072.472373457039 634.3679999999999C1065.1507734570391 659.328 1044.619573457039 676.608 1016.843573457039 680.7808L711.691573457039 699.6224L595.774773457039 988.1344A64.8448 64.8448 0 0 1 537.6371734570391 1024C512.4723734570391 1024 490.3795734570391 1009.7664 478.2451734570391 985.344L363.5571734570391 699.5712L54.9491734570391 680.448A64.7168 64.7168 0 0 1 2.6995734570391 634.5216A64.8704 64.8704 0 0 1 21.6435734570391 567.5519999999999L258.7507734570391 353.9712L190.6291734570391 81.3567999999999C184.2547734570391 55.8847999999999 193.1891734570391 30.0287999999998 213.8739734570391 13.9519999999998C234.5587734570391 -2.1760000000002 261.7971734570391 -4.3520000000003 285.0419734570391 8.2431999999999L408.6899734570391 92.4671999999998C424.7155734570391 103.4495999999999 428.8627734570391 125.4399999999997 417.9059734570391 141.5167999999998A35.2 35.2 0 0 1 369.0867734570391 150.7583999999997L262.2323734570391 77.8751999999996L332.0947734570391 357.4527999999996A35.327999999999996 35.327999999999996 0 0 1 321.4451734570391 392.3199999999997L78.2963734570391 611.2255999999998L390.0019734570392 630.5023999999997A35.123200000000004 35.123200000000004 0 0 1 420.4147734570391 652.5183999999997L538.5075734570391 942.336L654.8083734570391 652.544C659.8003734570392 639.9488 671.7811734570391 631.3216 685.2723734570392 630.528L997.0291734570392 611.2768L753.7779734570391 392.32A35.327999999999996 35.327999999999996 0 0 1 743.1795734570392 357.4528L813.1443734570391 77.4399999999999L467.0323734570391 305.6384A35.07200000000001 35.07200000000001 0 0 1 418.3923734570392 295.5264A35.07200000000001 35.07200000000001 0 0 1 413.3747734570391 268.9792C415.2691734570392 259.7376 420.6195734570392 251.8272 428.4787734570391 246.656L790.3859734570392 8.1407999999999C800.1139734570392 2.8671999999998 810.9171734570391 0 821.6179734570392 0C836.0307734570392 0 849.7779734570391 4.8639999999999 861.4003734570392 13.9007999999999A64.53760000000001 64.53760000000001 0 0 1 884.6451734570392 81.2543999999999L816.4979734570393 353.9712L1053.553973457039 567.3983999999999A64.89600000000002 64.89600000000002 0 0 1 1072.4979734570393 634.3935999999999" />
    <glyph glyph-name="new-consult"
      unicode="&#xEA25;"
      horiz-adv-x="1194.6666666666665" d="M1088.2417777777778 1024H106.4533333333334C47.7724444444445 1024 -0.0142222222222 978.176 -0.0142222222222 921.8844444444444V231.2817777777779C-0.0142222222222 174.9902222222223 47.7724444444445 129.1662222222223 106.4533333333334 129.1662222222223H462.5777777777777L597.376 0L732.0604444444443 129.1662222222223H1088.270222222222C1146.951111111111 129.1662222222223 1194.6808888888886 174.9902222222223 1194.6808888888886 231.2817777777779V921.8844444444444C1194.6524444444444 978.176 1146.9226666666668 1024 1088.2417777777778 1024zM1117.8524444444442 889.344V260.2666666666667C1117.8524444444442 229.944888888889 1091.9395555555552 205.2835555555556 1060.081777777778 205.2835555555556H693.4328888888888L597.319111111111 113.7777777777778L501.1768888888889 205.2835555555556H134.6417777777778C102.7271111111111 205.2835555555556 76.8142222222222 229.944888888889 76.8142222222222 260.2666666666667V889.344C76.8142222222222 919.6942222222222 102.7271111111111 944.3555555555556 134.6417777777778 944.3555555555556H1060.110222222222C1091.9679999999998 944.3555555555556 1117.8808888888889 919.6942222222222 1117.8808888888889 889.344zM221.9093333333333 585.4435555555556A71.1111111111111 71.1111111111111 0 0 1 364.1315555555556 585.4435555555556A71.1111111111111 71.1111111111111 0 0 1 221.9093333333333 585.4435555555556M511.9857777777778 585.4435555555556A71.1111111111111 71.1111111111111 0 0 1 654.208 585.4435555555556A71.1111111111111 71.1111111111111 0 0 1 511.9857777777778 585.4435555555556M813.6959999999999 585.4435555555556A71.1111111111111 71.1111111111111 0 0 1 955.9182222222222 585.4435555555556A71.1111111111111 71.1111111111111 0 0 1 813.6959999999999 585.4435555555556" />
    <glyph glyph-name="notice"
      unicode="&#xEA26;"
      horiz-adv-x="1024" d="M875.48343048882 650.4594285714286V434.7611428571428C890.9531447745343 440.9782857142857 904.0091447745344 449.9017142857142 915.7485733459628 460.7268571428572H915.4925733459628C936.338287631677 481.792 949.1382876316771 510.4639999999999 949.1382876316771 543.1588571428572C949.1382876316771 575.0491428571429 936.338287631677 603.6845714285714 915.4925733459628 624.4937142857143L914.4320019173914 625.5908571428571A107.33714285714287 107.33714285714287 0 0 1 875.4834304888199 650.4594285714286zM468.5897162031058 334.2262857142857V751.5428571428572H469.1382876316773C469.1382876316773 767.2685714285715 477.0011447745344 779.9588571428571 489.0697162031058 787.5291428571429L823.8080019173915 1017.4902857142858A39.27771428571429 39.27771428571429 0 0 0 878.8480019173915 1005.568C883.8217162031057 998.5462857142855 885.6502876316771 990.72 885.6502876316771 982.8937142857142V702.8662857142857A160 160 0 0 0 957.4765733459628 660.7360000000001L958.7931447745344 659.8948571428572A168.22857142857143 168.22857142857143 0 0 0 1005.7142876316772 543.1588571428572A169.728 169.728 0 0 0 958.7931447745344 425.5817142857144V426.1302857142859V425.5817142857144A159.08571428571426 159.08571428571426 0 0 0 885.6502876316771 382.9028571428571V102.3634285714286A40.22857142857143 40.22857142857143 0 0 0 845.5680019173914 61.8057142857142C836.6445733459628 61.8057142857142 828.0137162031057 64.5120000000001 821.1748590602485 70.2171428571428L487.2411447745343 299.6297142857143A40.66742857142858 40.66742857142858 0 0 0 469.1382876316771 333.7142857142857V334.2262857142856H468.5897162031057zM431.5428590602487 334.2262857142857H426.9348590602487L431.5428590602487 320.6948571428572V320.0731428571429H431.7622876316773L503.9908590602487 108.032A41.32571428571428 41.32571428571428 0 0 0 479.3782876316773 55.8445714285715L404.9188590602487 29.1108571428572L329.9474304888202 2.3405714285715A39.46057142857142 39.46057142857142 0 0 0 279.1131447745345 27.465142857143L173.2022876316773 340.1508571428573A199.9725714285714 199.9725714285714 0 0 0 70.436573345963 403.9680000000002A210.5782857142857 210.5782857142857 0 0 0 18.2857162031058 543.1588571428572A211.38285714285715 211.38285714285715 0 0 0 77.5314304888201 689.9200000000001H78.2994304888201L78.8480019173916 690.4685714285715C115.2731447745344 727.7714285714286 165.5954304888201 751.5428571428572 220.3794304888201 751.5428571428572H431.5428590602487V334.2628571428573z" />
    <glyph glyph-name="person"
      unicode="&#xEA27;"
      horiz-adv-x="1001.2444444444445" d="M635.5057777777777 428.0547555555555C655.3258666666666 441.344 674.2812444444444 432.992711111111 674.2812444444444 432.992711111111C859.8300444444444 375.1253333333333 991.903288888889 227.5100444444444 991.903288888889 54.2492444444445V53.7031111111111A53.27075555555556 53.27075555555556 0 0 0 938.6552888888888 0.5006222222222H63.1125333333333A53.81688888888889 53.81688888888889 0 0 0 9.3411555555555 54.2492444444445C9.3411555555555 225.6896 138.6837333333333 371.9850666666667 321.2060444444445 431.104A52.428799999999995 52.428799999999995 0 0 0 361.2330666666667 428.0547555555555A299.12177777777777 299.12177777777777 0 0 1 498.9496888888888 394.5585777777777C550.2407111111111 394.5585777777777 595.6607999999999 401.3624888888889 635.5057777777777 428.0547555555555zM500.5880888888889 476.9792C354.9980444444444 476.9564444444444 236.8967111111111 595.0577777777778 236.8967111111111 740.6933333333334C236.8967111111111 886.3288888888889 354.9980444444444 1004.4302222222223 500.5880888888889 1004.4302222222223C646.2919111111112 1004.4302222222223 764.370488888889 886.3288888888889 764.370488888889 740.6933333333334C764.370488888889 595.0577777777778 646.3146666666667 476.9564444444444 500.6336 476.9564444444444z" />
    <glyph glyph-name="point"
      unicode="&#xEA28;"
      horiz-adv-x="837.8181818181819" d="M745.309716701596 630.7607272727273H742.7497167015961C724.0151712470506 630.7607272727273 708.6086257925052 625.2683636363636 693.783898519778 615.8661818181818C680.8209894288689 654.592 647.7969894288689 682.4727272727273 605.3009894288688 682.4727272727273C586.5431712470506 682.4727272727273 568.6231712470507 676.957090909091 553.7984439743234 667.5781818181817C540.8122621561415 706.2807272727273 507.8115348834143 734.1847272727273 465.2922621561415 734.1847272727273C448.7220803379597 734.1847272727273 433.3155348834143 729.9258181818182 419.677716701596 722.4552727272728V822.0625454545454C419.677716701596 876.3112727272727 379.5555348834143 920.2967272727273 326.1213530652325 920.2967272727273C272.7104439743233 920.2967272727273 229.3998985197779 876.3112727272728 229.3998985197779 822.0858181818182V440.6923636363637L170.6362621561416 500.5963636363637C132.8646257925052 538.9498181818183 66.0253530652325 533.4807272727273 33.8624439743234 500.5963636363637C1.6995348834143 467.6887272727273 -19.4088287529494 401.4545454545454 26.6478985197779 354.3505454545455L296.7744439743234 79.8254545454547C302.3598985197779 74.1701818181819 308.4806257925051 69.4458181818184 314.9271712470506 65.466181818182C364.1722621561416 24.3200000000001 420.6086257925052 0 539.9278985197778 0C812.5678985197779 0 837.818807610687 150.4581818181819 837.818807610687 336.0581818181819V532.5265454545455C837.818807610687 586.7985454545455 798.7206257925052 630.7607272727273 745.309716701596 630.7607272727273zM786.8980803379596 336.0581818181819C786.8980803379596 179.0138181818181 786.1766257925052 51.712 539.9511712470505 51.712C435.642807610687 51.712 373.0158985197779 75.4967272727272 325.5860803379597 123.6712727272727L69.818807610687 383.5810909090909C47.1977167015961 406.7141818181819 52.8995348834143 436.3170909090908 71.4246257925052 455.2610909090909C89.9264439743234 474.2050909090908 123.9278985197779 474.8567272727272 141.8246257925052 456.704A23305218.676363636 23305218.676363636 0 0 1 280.2973530652325 315.8807272727273V811.7294545454545C280.2973530652325 837.4225454545455 300.8006257925052 858.2749090909091 326.0980803379598 858.2749090909091C351.418807610687 858.2749090909091 368.7337167015961 837.4225454545455 368.7337167015961 811.7294545454545V496.3374545454545H369.2457167015961A25.646545454545453 25.646545454545453 0 0 1 394.1940803379598 465.3149090909091A25.646545454545453 25.646545454545453 0 0 1 419.1191712470507 496.3374545454545H419.6311712470507V625.5941818181818C419.6311712470507 651.2872727272727 437.946807610687 672.1396363636363 463.2442621561416 672.1396363636363C463.2442621561416 672.1396363636363 508.090807610687 672.7447272727272 508.090807610687 625.5941818181818V455.0050909090909H508.602807610687A25.646545454545453 25.646545454545453 0 0 1 533.5511712470505 423.9825454545455A25.646545454545453 25.646545454545453 0 0 1 558.4762621561415 454.9818181818183H558.9882621561416V573.9054545454546C558.9882621561416 599.5985454545455 577.0013530652325 620.4509090909091 602.3220803379597 620.4509090909091C602.3220803379597 620.4509090909091 648.0762621561415 617.5185454545456 648.0762621561415 573.9054545454546V423.9592727272729H648.5882621561416A25.646545454545453 25.646545454545453 0 0 1 673.5366257925051 392.9367272727275C687.5933530652325 392.9367272727275 698.3453530652324 404.503272727273 698.3453530652324 418.7694545454547C698.3453530652324 420.5614545454547 698.1824439743233 422.2836363636365 697.8798985197778 423.9592727272729H698.3453530652324V526.3360000000001C698.3453530652324 552.0290909090911 717.2195348834142 572.8814545454547 742.5169894288688 572.8814545454547C742.5169894288688 572.8814545454547 786.874807610687 574.6967272727275 786.874807610687 526.3360000000001V336.0581818181819zM191.6049894288688 675.6072727272726V762.4843636363637A151.24945454545454 151.24945454545454 0 0 0 178.9446257925052 823.0865454545454C178.9446257925052 905.4254545454546 244.1780803379598 972.1483636363636 324.6551712470506 972.1483636363636S470.3657167015961 905.4254545454546 470.3657167015961 823.0865454545454C470.3657167015961 811.8458181818182 469.0624439743233 800.9309090909092 466.7351712470506 790.4116363636364A68.65454545454546 68.65454545454546 0 0 0 513.6297167015961 769.3963636363636C518.2842621561415 786.5018181818182 521.053716701596 804.4450909090909 521.053716701596 823.0865454545454C521.053716701596 934.050909090909 433.1060803379597 1024 324.6318985197779 1024C216.2042621561416 1024 128.2798985197779 934.050909090909 128.2798985197779 823.0865454545454A202.26327272727275 202.26327272727275 0 0 1 191.6282621561416 675.6072727272727z" />
    <glyph glyph-name="privacy"
      unicode="&#xEA29;"
      horiz-adv-x="870.4000000000001" d="M437.7728000000001 2.8159999999999C246.3872000000001 2.8159999999999 12.4288 317.568 12.4288 473.0112V834.2272C12.4288 842.5984 15.7568 850.6368 21.568 856.4992C27.4048 862.4384 36.0832 864.6912 43.584 865.7152C138.1504000000001 865.7152 336.4992000000001 891.648 413.504 990.0032C419.4432000000001 997.4272 428.3520000000001 1001.7792 437.7984 1001.8304C445.1968000000001 1001.8304 452.3392000000001 999.0912 458.0224 994.2016C459.5584 992.8704 609.3952 863.8208 826.9952000000001 863.8208C844.0192000000001 863.8208 857.9712000000001 849.7152 857.9712000000001 832.3328V461.6448C857.9712000000001 324.8384 638.2208 2.7904 437.7728 2.7904zM497.5488000000001 505.1392C535.8976000000001 526.5408 559.4752000000001 565.632 559.5520000000001 607.9232C559.5520000000001 673.6127999999999 503.7440000000001 727.0912000000001 435.1872000000002 727.0912000000001C366.6304000000001 727.0912000000001 310.8480000000002 673.6128 310.8480000000002 607.9232C310.9248000000001 565.632 334.5024000000002 526.5408 372.8256000000001 505.1392V343.4495999999999C372.8256000000001 307.0976000000001 400.8064000000001 277.5296 435.1872000000002 277.5296C469.5936000000002 277.5296 497.5488000000001 307.0976000000001 497.5488000000001 343.4495999999999V505.1392z" />
    <glyph glyph-name="qrcode"
      unicode="&#xEA2A;"
      horiz-adv-x="1024" d="M551.3846153846155 472.6153846153845H1024V393.8461538461538H551.3846153846155zM551.3846153846155 315.0769230769231H630.1538461538462V0H551.3846153846155zM945.2307692307692 315.0769230769231H1024V0H945.2307692307692zM787.6923076923077 315.0769230769231H866.4615384615386V78.7692307692307H787.6923076923077zM275.6923076923078 1024H196.9230769230769C86.6461538461539 1024 0 937.3538461538462 0 827.0769230769231V748.3076923076923C0 638.0307692307692 86.6461538461539 551.3846153846154 196.9230769230769 551.3846153846154H275.6923076923078C385.9692307692308 551.3846153846154 472.6153846153846 638.0307692307692 472.6153846153846 748.3076923076923V827.0769230769231C472.6153846153846 937.3538461538462 385.9692307692308 1024 275.6923076923078 1024zM393.8461538461539 748.3076923076923C393.8461538461539 685.2923076923078 338.7076923076923 630.1538461538462 275.6923076923078 630.1538461538462H196.9230769230769C133.9076923076923 630.1538461538462 78.7692307692308 685.2923076923078 78.7692307692308 748.3076923076923V827.0769230769231C78.7692307692308 890.0923076923077 133.9076923076923 945.2307692307692 196.9230769230769 945.2307692307692H275.6923076923078C338.7076923076923 945.2307692307692 393.8461538461539 890.0923076923077 393.8461538461539 827.0769230769231V748.3076923076923zM275.6923076923078 472.6153846153845H196.9230769230769C86.6461538461539 472.6153846153845 0 385.9692307692308 0 275.6923076923076V196.9230769230769C0 86.6461538461538 86.6461538461539 0 196.9230769230769 0H275.6923076923078C385.9692307692308 0 472.6153846153846 86.6461538461538 472.6153846153846 196.9230769230769V275.6923076923076C472.6153846153846 385.9692307692308 385.9692307692308 472.6153846153845 275.6923076923078 472.6153846153845zM393.8461538461539 196.9230769230769C393.8461538461539 133.9076923076922 338.7076923076923 78.7692307692307 275.6923076923078 78.7692307692307H196.9230769230769C133.9076923076923 78.7692307692307 78.7692307692308 133.9076923076922 78.7692307692308 196.9230769230769V275.6923076923076C78.7692307692308 338.7076923076924 133.9076923076923 393.8461538461538 196.9230769230769 393.8461538461538H275.6923076923078C338.7076923076923 393.8461538461538 393.8461538461539 338.7076923076924 393.8461538461539 275.6923076923076V196.9230769230769zM827.0769230769231 1024H748.3076923076924C638.0307692307692 1024 551.3846153846155 937.3538461538462 551.3846153846155 827.0769230769231V748.3076923076923C551.3846153846155 638.0307692307692 638.0307692307692 551.3846153846154 748.3076923076924 551.3846153846154H827.0769230769231C937.3538461538462 551.3846153846154 1024 638.0307692307692 1024 748.3076923076923V827.0769230769231C1024 937.3538461538462 937.3538461538462 1024 827.0769230769231 1024zM945.2307692307692 748.3076923076923C945.2307692307692 685.2923076923078 890.0923076923078 630.1538461538462 827.0769230769231 630.1538461538462H748.3076923076924C685.2923076923076 630.1538461538462 630.1538461538462 685.2923076923078 630.1538461538462 748.3076923076923V827.0769230769231C630.1538461538462 890.0923076923077 685.2923076923076 945.2307692307692 748.3076923076924 945.2307692307692H827.0769230769231C890.0923076923078 945.2307692307692 945.2307692307692 890.0923076923077 945.2307692307692 827.0769230769231V748.3076923076923z" />
    <glyph glyph-name="refresh"
      unicode="&#xEA2B;"
      horiz-adv-x="1024" d="M832 512A32 32 0 0 1 800 480C800 321.216 670.784 192 512 192S224 321.216 224 480S353.216 768 512 768C578.208 768 641.5360000000001 745.248 692.608 704H608A32 32 0 0 1 608 640H768A32 32 0 0 1 800 672V832A32 32 0 0 1 736 832V751.04A350.464 350.464 0 0 1 512 832C317.92 832 160 674.08 160 480S317.92 128 512 128S864 285.92 864 480A32 32 0 0 1 832 512" />
    <glyph glyph-name="right-arrow"
      unicode="&#xEA2C;"
      horiz-adv-x="658.2857142857142" d="M119.6982857142857 1024L0 910.2262857142858L418.9257142857143 511.9634285714286L0 113.7737142857144L119.6982857142857 0L538.5874285714285 398.1897142857142L658.2857142857142 512z" />
    <glyph glyph-name="thin-arrow-right"
      unicode="&#xEA2D;"
      horiz-adv-x="597.3333333333333" d="M472.9061516944055 512.4266666666667L62.0688183610721 907.8613333333332C50.3354850277388 920.192 36.5968183610721 947.7973333333334 46.4101516944055 961.9626666666666C60.2768183610721 982.1013333333332 88.7354850277388 986.9226666666668 100.4688183610721 974.592L546.1648183610721 536.32A32.128 32.128 0 0 0 554.6128183610722 512.4266666666667A32.21333333333333 32.21333333333333 0 0 0 546.1648183610721 488.5333333333333L100.4688183610721 50.2186666666667C88.7354850277388 37.8879999999999 65.3114850277388 39.6373333333333 46.4101516944055 62.8906666666667C35.6154850277388 76.1173333333334 50.3354850277388 104.6613333333334 62.0688183610721 116.9920000000001L472.9061516944055 512.4266666666667z" />
    <glyph glyph-name="user"
      unicode="&#xEA2E;"
      horiz-adv-x="1024" d="M512 1024H512ANaN NaN NaN 0 0 1024 1024V0ANaN NaN NaN 0 0 512 0H512ANaN NaN NaN 0 0 0 0V1024ANaN NaN NaN 0 0 512 1024zM513.872 543.8240000000001C576.112 543.8240000000001 626.5759999999999 594.0160000000001 626.5759999999999 655.9200000000001C626.5759999999999 717.808 576.1279999999999 768 513.872 768C451.6319999999999 768 401.168 717.808 401.168 655.9200000000001C401.168 594 451.6319999999999 543.8240000000001 513.872 543.8240000000001zM705.536 394.928C705.536 464.976 645.5039999999999 521.76 575.0719999999999 521.76H447.52C377.088 521.76 320 464.976 320 394.928V320A64 64 0 0 1 384 256H641.5360000000001A64 64 0 0 1 705.5360000000001 320V394.928z" />
    <glyph glyph-name="wap-ms-tag"
      unicode="&#xEA2F;"
      horiz-adv-x="2688" d="M2560 1024H128C57.6 1024 0 966.4 0 896V128C0 57.6 57.6 0 128 0H2560C2630.4 0 2688 57.6 2688 128V896C2688 966.4 2630.4 1024 2560 1024zM2387.2 704L2448 684.8C2419.2 553.6 2380.8 438.4 2336 339.2000000000001L2272 361.6C2313.6 451.2 2352 566.4000000000001 2387.2 704zM1856 707.2C1894.4 604.8 1929.6 486.4 1961.6 355.2000000000001L1894.4 339.2000000000001C1868.8 460.8000000000001 1833.6 576 1795.1999999999998 688L1855.9999999999995 707.2zM425.6 812.8H486.4V684.8H524.8000000000001V854.4H585.6V684.8H624V812.8H681.6V624H425.6V812.8zM345.6 854.4L409.6 822.4C377.6 739.2 323.2000000000001 665.6 249.6 598.4L224 672C278.4 723.2 320 784 345.6 854.4zM377.6 144H307.2V444.8L249.6 387.2L227.2 457.5999999999999C281.6 511.9999999999999 323.2 575.9999999999999 348.8 649.5999999999999L412.8 617.5999999999999C403.2 591.9999999999999 390.4 563.1999999999999 377.6 540.8V143.9999999999999zM566.4000000000001 249.6C576.0000000000001 256 582.4000000000001 262.4 582.4000000000001 272V393.6H515.2V358.4C515.2 265.6 489.6 195.2000000000001 444.8000000000001 147.2000000000001L390.4000000000001 195.2000000000001C428.8000000000001 233.6 448.0000000000001 288 448.0000000000001 358.4000000000001V457.6000000000001H646.4000000000001V297.6000000000002C665.6000000000001 313.6000000000002 684.8000000000001 332.8000000000002 704.0000000000001 352.0000000000001L720.0000000000001 291.2000000000002C681.6000000000001 249.6000000000002 640.0000000000001 214.4000000000002 598.4000000000001 185.6000000000001L566.4000000000001 249.6000000000002zM902.4 153.6C870.4000000000001 185.6 841.6000000000001 227.2000000000001 816.0000000000001 278.4C787.2000000000002 227.2 755.2000000000002 185.6 713.6000000000001 147.2000000000001L675.2000000000002 208C720.0000000000001 246.4 755.2000000000002 294.4 780.8000000000002 355.2000000000001C768.0000000000002 406.4000000000001 752.0000000000002 460.8000000000001 739.2000000000002 521.6C726.4000000000002 492.8000000000001 716.8000000000002 467.2 700.8000000000002 444.8000000000001L662.4000000000002 496.0000000000001C662.4000000000002 499.2000000000002 665.6000000000003 502.4000000000001 665.6000000000003 505.6000000000001H425.6000000000003V569.6000000000001H672V518.4000000000001C710.4 604.8000000000002 736 716.8000000000002 748.8 857.6000000000001L812.8 848.0000000000001C809.5999999999999 809.6000000000001 803.1999999999999 774.4000000000001 796.8 742.4000000000001H931.2V675.2000000000002H905.6C902.3999999999997 547.2000000000002 883.1999999999999 438.4000000000001 847.9999999999999 348.8000000000002C873.5999999999999 291.2000000000002 905.6 249.6000000000002 943.9999999999998 214.4000000000002L902.3999999999997 153.6000000000003zM1699.2 556.8H1283.2C1273.6000000000001 524.8 1264 499.2 1257.6000000000001 470.4H1612.8000000000002V406.4C1577.6000000000001 355.2 1523.2000000000003 300.8 1449.6000000000001 249.5999999999999C1491.2 233.5999999999999 1529.6000000000001 217.5999999999999 1568.0000000000002 201.5999999999999L1529.6000000000001 137.5999999999999C1414.4 191.9999999999999 1299.2 233.5999999999999 1177.6000000000001 265.5999999999999L1216.0000000000002 323.2C1270.4000000000003 310.4 1321.6000000000001 294.4 1369.6000000000001 278.4C1433.6000000000001 320 1484.8000000000002 361.6 1523.2 403.2H1152C1171.2 451.1999999999999 1187.2 502.4 1203.2 556.8H1008V627.1999999999999H1222.4L1241.6000000000001 704H1059.2V771.2H1257.6000000000001C1264.0000000000002 800 1267.2 832 1273.6000000000001 860.8L1350.4 854.4C1344 825.5999999999999 1340.8000000000002 800 1334.4 771.2H1654.4V704H1318.4C1312 678.4 1305.6000000000001 649.6 1299.2 627.2H1699.2V556.8zM2464 172.8H1779.2V243.2H2003.2V848H2073.6V243.2000000000001H2166.4V848H2240V243.2000000000001H2464V172.8000000000001zM771.2 617.6C780.8000000000001 550.4000000000001 796.8000000000001 489.6 812.8000000000001 435.2000000000001C832.0000000000001 502.4000000000001 841.6 582.4000000000001 844.8000000000001 668.8000000000001H784.0000000000001C780.8000000000001 652.8000000000001 777.6000000000001 633.6000000000001 771.2000000000002 617.6000000000001z" />
    <glyph glyph-name="warning"
      unicode="&#xEA30;"
      horiz-adv-x="955.7333333333333" d="M614.4000000000001 81.92C525.6533333333334 75.0933333333334 436.9066666666668 75.0933333333334 348.1600000000001 81.92C348.1600000000001 81.92 341.3333333333335 81.92 341.3333333333335 75.0933333333334C334.5066666666668 34.1333333333333 402.7733333333335 0 477.8666666666668 0S621.2266666666668 34.1333333333333 621.2266666666668 75.0933333333334C621.2266666666668 75.0933333333334 621.2266666666668 81.92 614.4000000000001 81.92C621.2266666666668 81.92 614.4000000000001 81.92 614.4000000000001 81.92M928.4266666666668 259.4133333333333L901.12 273.0666666666666C846.5066666666667 307.2 812.3733333333333 361.8133333333333 805.5466666666667 416.4266666666665L771.4133333333334 709.9733333333331C757.7600000000001 819.1999999999998 675.84 901.1199999999998 566.6133333333333 935.2533333333332C552.96 935.2533333333332 546.1333333333333 948.9066666666666 546.1333333333333 955.7333333333332C552.96 996.6933333333332 518.8266666666667 1023.9999999999998 477.8666666666667 1023.9999999999998C443.7333333333334 1023.9999999999998 409.6 996.6933333333332 409.6 962.5599999999998C409.6 948.9066666666666 402.7733333333335 942.0799999999998 389.1200000000001 942.0799999999998C279.8933333333335 907.9466666666664 197.9733333333334 819.1999999999998 184.3200000000001 716.8L150.1866666666667 416.4266666666665C143.3600000000001 361.8133333333332 109.2266666666667 307.2 54.6133333333334 273.0666666666666L27.3066666666667 252.5866666666665C6.8266666666667 245.7599999999999 1e-13 232.1066666666665 1e-13 211.6266666666666C1e-13 184.3199999999998 20.4800000000001 163.8399999999999 47.7866666666667 163.8399999999999L252.5866666666668 136.5333333333332C402.7733333333335 116.0533333333332 559.7866666666667 116.0533333333332 709.9733333333334 136.5333333333332L907.9466666666668 163.8399999999999C935.2533333333334 170.6666666666665 955.7333333333333 191.1466666666667 955.7333333333333 211.6266666666666C955.7333333333333 232.1066666666666 948.9066666666666 245.7599999999999 928.4266666666666 259.4133333333332" />
    </font>
</defs>
</svg>
